<svg width="26" height="26" viewBox="0 0 26 26" fill="none" xmlns="http://www.w3.org/2000/svg">
<path fill-rule="evenodd" clip-rule="evenodd" d="M6.12167 23.5724C5.41894 24.1747 4.33331 23.6754 4.33331 22.7498V5.4165C4.33331 3.62158 5.78839 2.1665 7.58331 2.1665H18.4166C20.2116 2.1665 21.6666 3.62158 21.6666 5.4165V22.7498C21.6666 23.6754 20.581 24.1747 19.8783 23.5724L13 17.6767L6.12167 23.5724ZM19.5 20.3944V5.41651C19.5 4.8182 19.015 4.33317 18.4166 4.33317H7.58331C6.985 4.33317 6.49998 4.8182 6.49998 5.41651V20.3944L12.295 15.4273C12.7007 15.0796 13.2993 15.0796 13.705 15.4273L19.5 20.3944Z" fill="white"/>
</svg>
