<svg width="26" height="26" viewBox="0 0 26 26" fill="none" xmlns="http://www.w3.org/2000/svg">
<path fill-rule="evenodd" clip-rule="evenodd" d="M19.5 0C20.3975 0 21.125 0.727537 21.125 1.625V3.25C23.8174 3.25 26 5.43261 26 8.125V21.125C26 23.8174 23.8174 26 21.125 26H4.875C2.18261 26 0 23.8174 0 21.125V8.125C0 5.43261 2.18261 3.25 4.875 3.25V1.625C4.875 0.727537 5.60254 0 6.5 0C7.39746 0 8.125 0.727537 8.125 1.625V3.25H17.875V1.625C17.875 0.727537 18.6025 0 19.5 0ZM22.75 13H3.25V21.125C3.25 22.0225 3.97754 22.75 4.875 22.75H21.125C22.0225 22.75 22.75 22.0225 22.75 21.125V13ZM21.125 6.5H4.875C3.97754 6.5 3.25 7.22754 3.25 8.125V9.75H22.75V8.125C22.75 7.22754 22.0225 6.5 21.125 6.5Z" fill="white"/>
</svg>
