<svg width="26" height="26" viewBox="0 0 26 26" fill="none" xmlns="http://www.w3.org/2000/svg">
<path fill-rule="evenodd" clip-rule="evenodd" d="M13 2.1665C18.9831 2.1665 23.8334 7.01675 23.8334 12.9998C23.8334 18.9829 18.9831 23.8332 13 23.8332C7.01694 23.8332 2.16669 18.9829 2.16669 12.9998C2.16669 7.01675 7.01694 2.1665 13 2.1665ZM13 4.33317C8.21355 4.33317 4.33335 8.21337 4.33335 12.9998C4.33335 17.7863 8.21355 21.6665 13 21.6665C17.7865 21.6665 21.6667 17.7863 21.6667 12.9998C21.6667 8.21337 17.7865 4.33317 13 4.33317ZM13 17.3332C13.5983 17.3332 14.0834 17.8182 14.0834 18.4165C14.0834 19.0148 13.5983 19.4998 13 19.4998C12.4017 19.4998 11.9167 19.0148 11.9167 18.4165C11.9167 17.8182 12.4017 17.3332 13 17.3332ZM13 6.49984C15.3933 6.49984 17.3334 8.43993 17.3334 10.8332C17.3334 12.7775 16.0528 14.4228 14.289 14.9716L14.0834 15.03V15.1665C14.0834 15.7648 13.5983 16.2498 13 16.2498C12.4444 16.2498 11.9866 15.8316 11.924 15.2928L11.9167 15.1665V14.0832C11.9167 13.5276 12.3349 13.0697 12.8737 13.0071L13.1617 12.9939C14.2828 12.9112 15.1667 11.9754 15.1667 10.8332C15.1667 9.63655 14.1966 8.6665 13 8.6665C11.8034 8.6665 10.8334 9.63655 10.8334 10.8332C10.8334 11.4315 10.3483 11.9165 9.75002 11.9165C9.15171 11.9165 8.66669 11.4315 8.66669 10.8332C8.66669 8.43993 10.6068 6.49984 13 6.49984Z" fill="white"/>
</svg>
