<svg width="26" height="26" viewBox="0 0 26 26" fill="none" xmlns="http://www.w3.org/2000/svg">
<path fill-rule="evenodd" clip-rule="evenodd" d="M11.8057 2.16906L14.1051 2.16895C14.1746 2.17217 14.2357 2.18012 14.3214 2.19879C14.9502 2.33572 15.1893 2.56151 15.7745 3.94436L15.8699 4.17248L16.2377 5.08375L16.2679 5.09619L16.7418 4.88168C17.7738 4.42018 18.3058 4.2258 18.6635 4.17156L18.7376 4.16204L18.8726 4.15475C19.1947 4.15475 19.5228 4.26883 19.7739 4.46746L19.8926 4.57369L21.3626 6.0376L21.4648 6.1456C21.9266 6.65426 21.9697 7.01487 21.4589 8.32915L21.289 8.75314L20.8884 9.70102L20.896 9.71953L21.8137 10.0622L22.2561 10.2371C23.399 10.7043 23.6338 10.9534 23.7865 11.5254C23.8173 11.6408 23.8283 11.7193 23.8318 11.8169L23.8334 11.9228V13.9895C23.8334 14.1364 23.8283 14.2194 23.7922 14.3646C23.6401 14.9753 23.4144 15.2078 22.0409 15.788L21.8144 15.8826L20.9094 16.2478L20.9031 16.263L21.2304 16.9779C22.0441 18.7865 22.0725 19.183 21.5377 19.7787L21.4708 19.8512L19.9618 21.359C19.6917 21.6321 19.3068 21.7825 18.9344 21.7825C18.6182 21.7825 18.1214 21.6321 17.2748 21.2926L16.8215 21.1069L16.3051 20.8886L16.2756 20.9008L16.0088 21.6163C15.3556 23.3372 15.1318 23.6167 14.4608 23.7898C14.3616 23.8154 14.2907 23.8263 14.2102 23.8308L14.0774 23.8336H12.0094C11.8804 23.8336 11.8075 23.8297 11.6794 23.8019C11.0508 23.6656 10.8108 23.4393 10.2244 22.0557L10.1288 21.8274L9.76042 20.9157L9.73208 20.904L9.04385 21.2133C7.94302 21.698 7.46613 21.8454 7.12625 21.8454C6.80797 21.8454 6.48386 21.7336 6.22603 21.5331L6.10297 21.4256L4.63499 19.9595L4.46735 19.7767C4.06478 19.303 4.04498 18.9357 4.53912 17.6714L4.79661 17.0386L5.11094 16.2997L5.10438 16.2838L4.39276 16.0186C2.9652 15.4769 2.52525 15.2274 2.31618 14.7719L2.25964 14.6285L2.2124 14.4698C2.18567 14.3684 2.17426 14.2957 2.16963 14.213L2.16669 14.0766V12.0086C2.16669 11.8606 2.17182 11.7769 2.20869 11.6304C2.34615 11.0844 2.54126 10.8419 3.56903 10.3814L3.99498 10.1974L5.08879 9.75512L5.09629 9.7369L4.68733 8.83457C4.01251 7.3018 3.95661 6.8351 4.38238 6.31386L4.44063 6.24547L4.57858 6.09926L6.04086 4.64029C6.30877 4.37089 6.69199 4.21902 7.06497 4.21902C7.33176 4.21902 7.72347 4.32458 8.35041 4.56204L8.98114 4.81207L9.69616 5.11175L9.72547 5.09955L9.9943 4.37933C10.6536 2.64601 10.8889 2.35614 11.5843 2.20047C11.6721 2.18083 11.7346 2.17246 11.8057 2.16906ZM13.5666 4.33357H12.3588L12.1885 4.73281C12.1238 4.89153 12.0508 5.07692 11.9684 5.29211L11.5909 6.30192C11.5004 6.54099 11.3288 6.739 11.1083 6.86286L10.994 6.91845L10.1067 7.28771C9.88262 7.38093 9.63517 7.39573 9.40379 7.33223L9.2672 7.28474L8.21738 6.84223L7.65031 6.6161L7.26916 6.47542L6.4131 7.32954L6.51385 7.58403C6.55323 7.67987 6.59854 7.78704 6.65021 7.90643L6.8247 8.30214L7.26232 9.25883C7.36714 9.48665 7.38906 9.74226 7.32718 9.98218L7.27998 10.1239L6.91713 11.0057C6.82107 11.2391 6.64708 11.4304 6.42681 11.5484L6.31296 11.6011L5.13476 12.0747L4.54578 12.3272L4.33335 12.4255V13.6499L4.58754 13.7601C4.68377 13.8003 4.79183 13.8442 4.91269 13.8921L5.31462 14.0481L6.29128 14.4108C6.53751 14.4995 6.74183 14.6738 6.86855 14.8996L6.92528 15.0166L7.28818 15.8957C7.38137 16.1215 7.39502 16.3707 7.32949 16.6031L7.28067 16.7402L6.85949 17.7285L6.59535 18.3805L6.46667 18.7267L7.32279 19.5817L7.57771 19.481C7.6716 19.4427 7.77451 19.3998 7.88669 19.3519L8.67302 19.0052L9.2401 18.7441C9.4774 18.6308 9.74637 18.6082 9.99698 18.6778L10.1205 18.7203L11.0131 19.0888C11.2497 19.1865 11.4427 19.3641 11.56 19.5886L11.6121 19.7047L11.8343 20.2652L12.1504 21.0339L12.3333 21.4539L12.4325 21.6669H13.6439L13.8169 21.2591L14.0423 20.6837L14.4092 19.7C14.4996 19.4588 14.6725 19.2591 14.895 19.1348L15.0102 19.079L15.899 18.7122C16.1205 18.6209 16.3646 18.606 16.5934 18.6674L16.7285 18.7135L17.5655 19.0685L18.1763 19.3173L18.5106 19.4462L18.7312 19.5261L19.5883 18.6705L19.4231 18.2629L19.1754 17.6979L18.7369 16.742C18.6317 16.5137 18.6097 16.2576 18.6719 16.0172L18.7193 15.8752L19.0815 14.9973C19.1771 14.7657 19.3494 14.5755 19.5676 14.4575L19.6804 14.4047L20.6783 14.0036L21.1877 13.79L21.3278 13.7291L21.6667 13.574V12.3509L21.3269 12.2059L20.8666 12.0237L19.7049 11.5912C19.4592 11.5019 19.2556 11.3272 19.1295 11.1015L19.0731 10.9845L18.7108 10.1018C18.6184 9.87659 18.605 9.62824 18.6703 9.39658L18.7189 9.25991L19.0553 8.47353C19.1428 8.26557 19.219 8.08116 19.2848 7.91816L19.4029 7.6201L19.5315 7.2718L18.6749 6.41879L18.4198 6.51972C18.2788 6.57724 18.1171 6.64551 17.9338 6.72523L17.7431 6.8088L16.7433 7.26225C16.5159 7.36647 16.2609 7.38814 16.0216 7.32642L15.8802 7.27938L14.9881 6.9127C14.7546 6.81672 14.5633 6.64279 14.4452 6.42255L14.3924 6.30871L14.077 5.51962L13.8485 4.9668L13.7219 4.67279L13.5666 4.33357ZM13.0005 8.6669C15.3905 8.6669 17.3334 10.6093 17.3334 12.9993C17.3334 15.3894 15.3904 17.3336 13.0005 17.3336C10.61 17.3336 8.66669 15.3897 8.66669 12.9993C8.66669 10.609 10.6099 8.6669 13.0005 8.6669ZM13.0005 10.8336C11.8062 10.8336 10.8334 11.8059 10.8334 12.9993C10.8334 14.1933 11.8067 15.1669 13.0005 15.1669C14.1935 15.1669 15.1667 14.1931 15.1667 12.9993C15.1667 11.8061 14.194 10.8336 13.0005 10.8336Z" fill="white"/>
</svg>
