<svg width="26" height="26" viewBox="0 0 26 26" fill="none" xmlns="http://www.w3.org/2000/svg">
<path fill-rule="evenodd" clip-rule="evenodd" d="M6.5 18.2H19.5C23.0898 18.2 26 21.1101 26 24.7C26 25.418 25.418 26 24.7 26C24.0333 26 23.4838 25.4981 23.4087 24.8516L23.3934 24.4708C23.2792 22.4994 21.7006 20.9208 19.7292 20.8066L19.5 20.8H6.5C4.34609 20.8 2.6 22.5461 2.6 24.7C2.6 25.418 2.01797 26 1.3 26C0.58203 26 0 25.418 0 24.7C0 21.2046 2.759 18.3536 6.21804 18.206L6.5 18.2H19.5H6.5ZM13 0C17.3078 0 20.8 3.49218 20.8 7.8C20.8 12.1078 17.3078 15.6 13 15.6C8.69218 15.6 5.2 12.1078 5.2 7.8C5.2 3.49218 8.69218 0 13 0ZM13 2.6C10.1281 2.6 7.8 4.92812 7.8 7.8C7.8 10.6719 10.1281 13 13 13C15.8719 13 18.2 10.6719 18.2 7.8C18.2 4.92812 15.8719 2.6 13 2.6Z" fill="white"/>
</svg>
