<svg width="160" height="160" viewBox="0 0 160 160" fill="none" xmlns="http://www.w3.org/2000/svg">
<path fill-rule="evenodd" clip-rule="evenodd" d="M80.0065 13.3325C116.826 13.3325 146.673 43.1802 146.673 79.9992C146.673 116.818 116.826 146.666 80.0065 146.666C43.1875 146.666 13.3398 116.818 13.3398 79.9992C13.3398 43.1802 43.1875 13.3325 80.0065 13.3325ZM80.0132 26.665C50.558 26.665 26.6799 50.5432 26.6799 79.9983C26.6799 109.454 50.558 133.332 80.0132 133.332C109.468 133.332 133.347 109.454 133.347 79.9983C133.347 50.5432 109.468 26.665 80.0132 26.665ZM80.0065 106.665C83.6884 106.665 86.6732 109.65 86.6732 113.332C86.6732 117.014 83.6884 119.998 80.0065 119.998C76.3246 119.998 73.3398 117.014 73.3398 113.332C73.3398 109.65 76.3246 106.665 80.0065 106.665ZM80.0065 40C94.7341 40 106.673 51.9391 106.673 66.6667C106.673 78.6321 98.7926 88.7569 87.9385 92.1338L86.6732 92.4932V93.3334C86.6732 97.0153 83.6884 100 80.0065 100C76.5876 100 73.7698 97.4264 73.3847 94.1108L73.3398 93.3334V86.6667C73.3398 83.2478 75.9135 80.43 79.229 80.0449L81.0016 79.9635C87.9007 79.4545 93.3399 73.6958 93.3399 66.6667C93.3399 59.3029 87.3703 53.3334 80.0065 53.3334C72.6427 53.3334 66.6732 59.3029 66.6732 66.6667C66.6732 70.3486 63.6884 73.3334 60.0065 73.3334C56.3246 73.3334 53.3398 70.3486 53.3398 66.6667C53.3398 51.9391 65.2789 40 80.0065 40Z" fill="#337D5C"/>
</svg>
