<svg width="58" height="58" viewBox="0 0 58 58" fill="none" xmlns="http://www.w3.org/2000/svg">
<path d="M52.2089 55.8466H5.79123C3.4573 55.8466 1.55859 53.948 1.55859 51.6141V15.3399C1.55859 14.3837 2.33378 13.6084 3.2901 13.6084C4.24642 13.6084 5.0216 14.3838 5.0216 15.3399V51.614C5.0216 52.0383 5.36688 52.3833 5.79112 52.3833H52.2088C52.633 52.3833 52.9783 52.0383 52.9783 51.614V29.1937C52.9783 28.2375 53.7535 27.4622 54.7098 27.4622C55.6661 27.4622 56.4413 28.2377 56.4413 29.1937V51.6141C56.4415 53.9481 54.5428 55.8466 52.2089 55.8466Z" fill="#80A9C3"/>
<path d="M56.2673 18.6605V9.35736C56.2673 7.97612 55.1476 6.85645 53.7663 6.85645H4.23149C2.85025 6.85622 1.73047 7.97612 1.73047 9.35736V18.6607H56.2673V18.6605Z" fill="#80A9C3"/>
<path d="M56.2685 20.3923H1.7315C0.775184 20.3923 0 19.6168 0 18.6608V9.35741C0 7.02348 1.89859 5.125 4.23264 5.125H53.7674C56.1014 5.125 58 7.02359 58 9.35741V18.6608C58 19.6168 57.2248 20.3923 56.2685 20.3923ZM3.46312 16.9291H54.5369V9.35741C54.5369 8.93318 54.1916 8.58812 53.7674 8.58812H4.23264C3.8084 8.58812 3.46312 8.93318 3.46312 9.35741V16.9291Z" fill="#80A9C3"/>
<path d="M8.69635 11.7924C7.74003 11.7924 6.96484 11.017 6.96484 10.0609V3.88482C6.96484 2.92862 7.74003 2.15332 8.69635 2.15332C9.65267 2.15332 10.428 2.92873 10.428 3.88482V10.0608C10.428 11.017 9.65267 11.7924 8.69635 11.7924Z" fill="#80A9C3"/>
<path d="M18.8487 11.7924C17.8924 11.7924 17.1172 11.017 17.1172 10.0609V3.88482C17.1172 2.92862 17.8924 2.15332 18.8487 2.15332C19.805 2.15332 20.5802 2.92873 20.5802 3.88482V10.0608C20.5802 11.017 19.805 11.7924 18.8487 11.7924Z" fill="#80A9C3"/>
<path d="M39.1495 11.7924C38.1932 11.7924 37.418 11.017 37.418 10.0609V3.88482C37.418 2.92862 38.1932 2.15332 39.1495 2.15332C40.1058 2.15332 40.881 2.92873 40.881 3.88482V10.0608C40.8811 11.017 40.1058 11.7924 39.1495 11.7924Z" fill="#80A9C3"/>
<path d="M29.001 11.7924C28.0447 11.7924 27.2695 11.017 27.2695 10.0609V3.88482C27.2695 2.92862 28.0447 2.15332 29.001 2.15332C29.9573 2.15332 30.7325 2.92873 30.7325 3.88482V10.0608C30.7326 11.017 29.9573 11.7924 29.001 11.7924Z" fill="#80A9C3"/>
<path d="M49.3018 11.7924C48.3455 11.7924 47.5703 11.017 47.5703 10.0609V3.88482C47.5703 2.92862 48.3455 2.15332 49.3018 2.15332C50.2581 2.15332 51.0333 2.92873 51.0333 3.88482V10.0608C51.0333 11.017 50.2581 11.7924 49.3018 11.7924Z" fill="#80A9C3"/>
<path d="M28.7904 40.7781C28.3311 40.7781 27.8907 40.5956 27.566 40.2709L22.1985 34.9034C21.5224 34.2273 21.5224 33.1308 22.1985 32.4545C22.8747 31.7786 23.9712 31.7787 24.6473 32.4545L28.7903 36.5977L36.6788 28.7091C37.355 28.0332 38.4515 28.0332 39.1277 28.7091C39.8039 29.3853 39.8039 30.4817 39.1277 31.158L30.0147 40.271C29.6901 40.5956 29.2497 40.7781 28.7904 40.7781Z" fill="#80A9C3"/>
<path d="M40.8564 47.1891H17.1417C16.1853 47.1891 15.4102 46.4137 15.4102 45.4576V26.9424C15.4102 25.9862 16.1853 25.2109 17.1417 25.2109H27.9024C28.8587 25.2109 29.6339 25.9863 29.6339 26.9424C29.6339 27.8987 28.8587 28.6739 27.9024 28.6739H18.8732V43.7262H39.1249V36.3143C39.1249 35.3581 39.9001 34.5828 40.8564 34.5828C41.8127 34.5828 42.5879 35.3582 42.5879 36.3143V45.4578C42.588 46.4139 41.8128 47.1891 40.8564 47.1891Z" fill="#80A9C3"/>
</svg>
