<svg width="58" height="58" viewBox="0 0 58 58" fill="none" xmlns="http://www.w3.org/2000/svg">
<path d="M51.3486 17.0997L37.1909 11.4364L37.1863 11.4252L29.9353 8.70664V4.67752C29.9353 2.09828 27.837 0 25.258 0C22.679 0 20.5805 2.09828 20.5805 4.67752V5.6131H22.4514V4.67752C22.4514 3.13025 23.7105 1.87097 25.258 1.87097C26.8055 1.87097 28.0645 3.13005 28.0645 4.67752V8.70664L20.8136 11.4252L20.809 11.4364L6.6511 17.0997L2.64453 40.1379L14.0322 41.0865V58H43.9677V41.0865L55.3551 40.1379L51.3486 17.0997ZM38.0065 18.0894L31.5245 19.8574L36.2385 13.9649L38.0065 18.0894ZM28.9997 10.3539L34.9465 12.5841L28.9997 20.0185L23.0529 12.5841L28.9997 10.3539ZM21.7611 13.9649L26.475 19.8576L19.9929 18.0896L21.7611 13.9649ZM14.032 39.2089L4.839 38.4428L5.17109 36.5325L14.032 37.3379V39.2089ZM43.9675 35.4596V26.1935V25.258H42.0965V26.1935V41.2427V56.129H15.9032V41.2427V26.1935V25.258H14.0322V26.1935V35.4596L5.49299 34.6831L8.31631 18.4486L19.7666 13.8685L17.4261 19.3289L28.0643 22.2309V52.3871H29.9353V22.2309L40.5736 19.3299L38.233 13.8695L49.6834 18.4496L52.5067 34.6841L43.9675 35.4596ZM43.9677 37.3379L52.8286 36.5325L53.1607 38.4428L43.9677 39.2089V37.3379Z" fill="#E0D97D"/>
</svg>
