<svg width="58" height="58" viewBox="0 0 58 58" fill="none" xmlns="http://www.w3.org/2000/svg">
<path d="M13.6028 47.8438C12.3335 47.8438 11.3008 48.8764 11.3008 50.1457C11.3008 51.4149 12.3335 52.4474 13.6028 52.4474C14.8718 52.4474 15.9042 51.4149 15.9042 50.1457C15.9042 48.8764 14.8718 47.8438 13.6028 47.8438Z" fill="#AC5272"/>
<path d="M44.966 47.8438C43.6967 47.8438 42.6641 48.8764 42.6641 50.1457C42.6641 51.4149 43.6967 52.4474 44.966 52.4474C46.2351 52.4474 47.2675 51.4149 47.2675 50.1457C47.2675 48.8764 46.2351 47.8438 44.966 47.8438Z" fill="#AC5272"/>
<path d="M40.9795 39.6145H49.2357C49.7013 39.6145 50.0787 39.2371 50.0787 38.7716V35.9096C50.0787 35.8292 50.0671 35.7492 50.0445 35.672L47.8387 28.1638C47.7333 27.805 47.4041 27.5586 47.03 27.5586H40.9796C40.5141 27.5586 40.1367 27.936 40.1367 28.4015V38.7715C40.1366 39.2373 40.514 39.6145 40.9795 39.6145ZM41.8224 37.9287V32.4087L48.3928 36.1194V37.9286H41.8224V37.9287Z" fill="#AC5272"/>
<path d="M6.67103 39.6144H35.915C36.3805 39.6144 36.7579 39.237 36.7579 38.7715V28.4015C36.7579 27.936 36.3805 27.5586 35.915 27.5586H6.67103C6.20551 27.5586 5.82812 27.936 5.82812 28.4015V38.7715C5.82812 39.2372 6.20551 39.6144 6.67103 39.6144ZM7.51393 30.1386L33.2659 37.9286H7.51393V30.1386Z" fill="#AC5272"/>
<path d="M57.8278 44.3088C57.6684 44.0994 57.4202 43.9764 57.1571 43.9764H56.8478L51.4388 25.2416H54.5656C54.6284 25.2416 54.6894 25.2342 54.7484 25.2212C55.1347 25.1443 55.426 24.8037 55.426 24.3948C55.426 23.3404 55.0738 22.319 54.4429 21.4905C55.0739 20.6616 55.4262 19.6401 55.4262 18.5859C55.4262 18.1204 55.0488 17.743 54.5833 17.743C54.5804 17.743 54.5774 17.7435 54.5745 17.7435C54.5716 17.7435 54.5686 17.743 54.5657 17.743H36.6312V15.7403C37.4067 15.6172 38.1808 15.4847 38.9518 15.34C40.9416 14.9668 42.5603 13.7436 43.5062 12.1174C44.0296 11.9992 44.5522 11.8776 45.0738 11.7495C47.2752 11.2094 48.627 8.97864 48.0868 6.77661C47.6338 4.9327 45.9926 3.64486 44.0954 3.64486C43.7663 3.64486 43.4362 3.68484 43.1138 3.76383C42.8682 3.82416 42.622 3.8822 42.3758 3.93964C41.1615 2.76415 39.5126 2.05273 37.7236 2.05273C37.3093 2.05273 36.8915 2.09163 36.4814 2.16869C32.17 2.97728 27.763 3.38717 23.3826 3.38717C19.9704 3.38717 16.5168 3.13791 13.1175 2.64614C12.798 2.5999 12.4735 2.57666 12.1529 2.57666C10.43 2.57666 8.83195 3.24894 7.62888 4.35567C7.30846 4.28908 6.9884 4.2208 6.66845 4.15012C6.37536 4.08534 6.07565 4.05234 5.77762 4.05234C3.86652 4.05234 2.17975 5.40882 1.76685 7.27754C1.52987 8.34971 1.7247 9.45018 2.31546 10.3759C2.90621 11.3017 3.82221 11.942 4.89438 12.1789C5.35124 12.2799 5.80881 12.3764 6.26663 12.4699C6.42052 12.7524 6.59524 13.026 6.79116 13.2884C7.86237 14.7221 9.42788 15.6529 11.1992 15.909C11.879 16.0073 12.5611 16.0968 13.2441 16.1787V17.7428H0.842904C0.37738 17.7428 0 18.1202 0 18.5857V24.3985C0 24.864 0.37738 25.2414 0.842904 25.2414H1.79406V45.8775H0.842904C0.37738 45.8775 0 46.2549 0 46.7204V50.1456C0 50.6111 0.37738 50.9885 0.842904 50.9885H2.63696H5.48032H7.8614C8.27093 53.7896 10.6886 55.9477 13.6017 55.9477C16.5144 55.9477 18.9321 53.7896 19.3415 50.9885H39.226C39.6355 53.7896 42.0532 55.9477 44.9663 55.9477C47.879 55.9477 50.2967 53.7896 50.7061 50.9885H54.6291C54.6296 50.9885 54.63 50.9884 54.6305 50.9884H55.6854C56.0644 50.9884 56.3969 50.7353 56.4978 50.3699L57.9696 45.0435C58.0396 44.7901 57.9871 44.5182 57.8278 44.3088ZM46.4495 7.17844C46.7683 8.47747 45.9707 9.79361 44.6719 10.1123C44.5335 10.1463 44.3944 10.1776 44.2559 10.2108C44.4488 9.3506 44.4746 8.43894 44.3022 7.51909C44.1589 6.75554 43.8884 6.0434 43.5168 5.40087C43.7072 5.35415 43.9019 5.33067 44.0956 5.33067C45.2142 5.33079 46.1823 6.09061 46.4495 7.17844ZM5.25803 10.5331C4.62537 10.3933 4.08507 10.0155 3.73647 9.46933C3.38799 8.92325 3.273 8.27409 3.4128 7.64143C3.6564 6.53879 4.6509 5.73827 5.7775 5.73827C5.95331 5.73827 6.38524 5.81329 6.42558 5.82208C5.97149 6.56926 5.65805 7.41288 5.52704 8.3184C5.41542 9.09014 5.43793 9.86068 5.58701 10.6032C5.47743 10.5794 5.36761 10.5573 5.25803 10.5331ZM8.14149 12.2795C7.33977 11.2064 7.00381 9.88548 7.19551 8.55996C7.55001 6.10999 9.68123 4.26259 12.1529 4.26259C12.3932 4.26259 12.6368 4.28017 12.8764 4.31473C16.3551 4.81806 19.8899 5.07322 23.3826 5.07322C27.867 5.07322 32.3786 4.65358 36.7922 3.82584C37.1002 3.76816 37.4135 3.73878 37.7236 3.73878C40.1305 3.73878 42.2005 5.45939 42.6453 7.83012C43.1549 10.5478 41.3586 13.1735 38.641 13.6832C33.6184 14.6251 28.4852 15.1028 23.3842 15.1028C19.4134 15.1028 15.3949 14.8129 11.4406 14.2409C10.115 14.0489 8.94333 13.3525 8.14149 12.2795ZM14.93 16.3646C17.746 16.6461 20.5767 16.7885 23.3842 16.7885C27.2398 16.7885 31.113 16.5203 34.9452 15.9911V17.743H14.93V16.3646ZM1.68581 22.3334H50.5766C51.0422 22.3334 51.4195 21.956 51.4195 21.4905C51.4195 21.0249 51.0422 20.6476 50.5766 20.6476H1.68581V19.4288H53.6223C53.4672 19.9769 53.1638 20.4787 52.7384 20.8703C52.3959 21.1856 52.3738 21.7189 52.6891 22.0614C52.6992 22.0724 52.7103 22.0821 52.7209 22.0923C52.7271 22.0986 52.7317 22.1045 52.7386 22.1108C53.1648 22.503 53.4686 23.0064 53.6233 23.5559H50.3182H2.63696H1.68581V22.3334ZM3.47987 25.2416H49.6842L55.0934 43.9764H51.4195C50.954 43.9764 50.5766 44.3538 50.5766 44.8193V46.7353C49.4226 44.8438 47.3395 43.5783 44.9663 43.5783C41.6304 43.5783 38.8694 46.0786 38.4542 49.3029H20.113C19.6978 46.0786 16.9372 43.5783 13.6017 43.5783C10.266 43.5783 7.5051 46.0786 7.08991 49.3029H6.32322V46.7206C6.32322 46.2551 5.94584 45.8777 5.48032 45.8777H3.47987V25.2416ZM1.68581 47.5635H4.63742V49.3029H1.68581V47.5635ZM13.6017 54.2621C11.3319 54.2621 9.4852 52.4155 9.4852 50.1458C9.4852 47.8761 11.3319 46.0296 13.6017 46.0296C15.8713 46.0296 17.7177 47.8761 17.7177 50.1458C17.7177 52.4155 15.8713 54.2621 13.6017 54.2621ZM44.9663 54.2621C42.6965 54.2621 40.8498 52.4155 40.8498 50.1458C40.8498 47.8761 42.6965 46.0296 44.9663 46.0296C47.2359 46.0296 49.0823 47.8761 49.0823 50.1458C49.0822 52.4155 47.2357 54.2621 44.9663 54.2621ZM55.0437 49.3028H52.2624V45.6622H56.0497L55.0437 49.3028Z" fill="#AC5272"/>
</svg>
