<svg width="58" height="58" viewBox="0 0 58 58" fill="none" xmlns="http://www.w3.org/2000/svg">
<path fill-rule="evenodd" clip-rule="evenodd" d="M29 4.83301C41.0122 4.83301 50.75 14.4652 50.75 26.3471C50.75 34.2097 44.171 42.5228 31.2916 51.579L29 53.1663L27.6172 52.212C14.1385 42.9097 7.25 34.3925 7.25 26.3471C7.25 14.4652 16.9878 4.83301 29 4.83301ZM28.9999 9.6138C19.6571 9.6138 12.0833 17.1055 12.0833 26.3469C12.0833 32.153 17.6337 39.2376 28.9999 47.3223C40.3662 39.2376 45.9166 32.153 45.9166 26.3469C45.9166 17.1055 38.3427 9.6138 28.9999 9.6138ZM28.9999 14.5C34.3387 14.5 38.6666 18.8279 38.6666 24.1667C38.6666 29.5054 34.3387 33.8333 28.9999 33.8333C23.6612 33.8333 19.3333 29.5054 19.3333 24.1667C19.3333 18.8279 23.6612 14.5 28.9999 14.5ZM29.0001 19.333C26.3307 19.333 24.1667 21.497 24.1667 24.1663C24.1667 26.8357 26.3307 28.9997 29.0001 28.9997C31.6695 28.9997 33.8334 26.8357 33.8334 24.1663C33.8334 21.497 31.6695 19.333 29.0001 19.333Z" fill="#FF5454"/>
</svg>
