<svg width="58" height="58" viewBox="0 0 58 58" fill="none" xmlns="http://www.w3.org/2000/svg">
<path d="M28.9988 0C19.593 0 14.0348 2.73812 9.6654 6.40662V2.41663C9.6654 1.08263 8.58277 0 7.24877 0C5.91477 0 4.83203 1.08263 4.83203 2.41663V12.0833C4.83203 13.4173 5.91466 14.4999 7.24866 14.4999H16.9153C18.2493 14.4999 19.3319 13.4173 19.3319 12.0833C19.3319 10.7493 18.2493 9.66663 16.9153 9.66663H13.312C16.9612 6.76176 21.4272 4.83326 28.9987 4.83326C42.3242 4.83326 53.1653 15.6744 53.1653 28.9999C53.1653 42.3254 42.3242 53.1665 28.9987 53.1665C27.8918 53.1665 26.785 53.0916 25.7072 52.9441C24.3973 52.758 23.1648 53.6885 22.986 55.0128C22.8048 56.3347 23.7304 57.5527 25.0523 57.7339C26.3477 57.9103 27.6744 57.9998 28.9987 57.9998C44.9898 57.9998 57.9987 44.9909 57.9987 28.9998C57.9987 13.0087 44.9898 0 28.9988 0Z" fill="#51A280"/>
<path d="M19.0307 51.0219C17.4479 50.3041 15.9374 49.41 14.5406 48.366C13.47 47.5685 11.9572 47.786 11.1572 48.8566C10.3574 49.9248 10.5772 51.4376 11.6454 52.2375C13.3225 53.4894 15.135 54.5624 17.0345 55.4226C17.3584 55.57 17.6966 55.6401 18.0301 55.6401C18.9509 55.6401 19.8305 55.1109 20.2341 54.2215C20.7852 53.0036 20.2462 51.5729 19.0307 51.0219Z" fill="#51A280"/>
<path d="M6.97863 38.9625C6.42763 37.7469 4.99213 37.2104 3.779 37.7566C2.56338 38.3076 2.0245 39.7408 2.5755 40.9563C3.43338 42.8534 4.50638 44.6683 5.76063 46.3454C6.23426 46.981 6.96175 47.3169 7.69876 47.3169C8.20139 47.3169 8.70889 47.1598 9.14389 46.8335C10.212 46.036 10.432 44.5208 9.63202 43.4526C8.58813 42.0534 7.694 40.543 6.97863 38.9625Z" fill="#51A280"/>
<path d="M2.98689 35.0133C4.30877 34.832 5.23439 33.614 5.05314 32.2921C4.90576 31.2142 4.83326 30.105 4.83326 29.0006C4.83326 27.6642 3.75063 26.584 2.41663 26.584C1.08025 26.584 0 27.6642 0 29.0006C0 30.325 0.0893789 31.6517 0.265871 32.947C0.430242 34.1578 1.46699 35.035 2.65599 35.035C2.76701 35.035 2.87576 35.0278 2.98689 35.0133Z" fill="#51A280"/>
<path d="M28.9988 45.9163C38.3271 45.9163 45.9154 38.3279 45.9154 28.9996C45.9154 19.6714 38.327 12.083 28.9988 12.083C19.6705 12.083 12.082 19.6713 12.082 28.9996C12.082 38.328 19.6704 45.9163 28.9988 45.9163ZM22.4568 32.1244L26.582 27.9991V24.1663C26.582 22.8323 27.6647 21.7496 28.9987 21.7496C30.3327 21.7496 31.4153 22.8323 31.4153 24.1663V28.9996C31.4153 29.3138 31.35 29.628 31.2292 29.9228C31.1059 30.22 30.9295 30.4859 30.7072 30.7081L25.8738 35.5415C25.4025 36.0128 24.7839 36.2496 24.1652 36.2496C23.5465 36.2496 22.9278 36.0128 22.4566 35.5415C21.5119 34.5966 21.5119 33.0693 22.4568 32.1244Z" fill="#51A280"/>
</svg>
