<svg width="58" height="58" viewBox="0 0 58 58" fill="none" xmlns="http://www.w3.org/2000/svg">
<path d="M10.7606 42.0964C12.0507 42.0964 13.0993 41.0478 13.0993 39.7577C13.0993 38.4676 12.0507 37.4189 10.7606 37.4189C9.47052 37.4189 8.42188 38.4676 8.42188 39.7577C8.42188 41.0478 9.47052 42.0964 10.7606 42.0964ZM10.7606 39.2899C11.018 39.2899 11.2284 39.5003 11.2284 39.7577C11.2284 40.015 11.018 40.2254 10.7606 40.2254C10.5033 40.2254 10.2929 40.015 10.2929 39.7577C10.2929 39.5003 10.5033 39.2899 10.7606 39.2899Z" fill="#837AB7"/>
<path d="M13.0977 39.7577C13.0977 41.0478 14.1463 42.0964 15.4364 42.0964C16.7265 42.0964 17.7751 41.0478 17.7751 39.7577C17.7751 38.4676 16.7265 37.4189 15.4364 37.4189C14.1463 37.4189 13.0977 38.4676 13.0977 39.7577ZM15.4362 39.2899C15.6935 39.2899 15.9039 39.5003 15.9039 39.7577C15.9039 40.015 15.6935 40.2254 15.4362 40.2254C15.1788 40.2254 14.9684 40.015 14.9684 39.7577C14.9686 39.5003 15.179 39.2899 15.4362 39.2899Z" fill="#837AB7"/>
<path d="M49.5798 39.7577C49.5798 38.4676 48.5312 37.4189 47.2411 37.4189C45.951 37.4189 44.9023 38.4676 44.9023 39.7577C44.9023 41.0478 45.951 42.0964 47.2411 42.0964C48.5312 42.0964 49.5798 41.0478 49.5798 39.7577ZM47.2411 40.2254C46.9837 40.2254 46.7733 40.015 46.7733 39.7577C46.7733 39.5003 46.9837 39.2899 47.2411 39.2899C47.4984 39.2899 47.7088 39.5003 47.7088 39.7577C47.7088 40.0148 47.4984 40.2254 47.2411 40.2254Z" fill="#837AB7"/>
<path d="M44.904 39.7577C44.904 38.4676 43.8554 37.4189 42.5653 37.4189C41.2752 37.4189 40.2266 38.4676 40.2266 39.7577C40.2266 41.0478 41.2752 42.0964 42.5653 42.0964C43.8554 42.0964 44.904 41.0478 44.904 39.7577ZM42.5655 40.2254C42.3081 40.2254 42.0977 40.015 42.0977 39.7577C42.0977 39.5003 42.3081 39.2899 42.5655 39.2899C42.8228 39.2899 43.0332 39.5003 43.0332 39.7577C43.0332 40.0148 42.8226 40.2254 42.5655 40.2254Z" fill="#837AB7"/>
<path d="M55.1929 14.0322C54.4661 14.0322 53.8093 14.3167 53.3107 14.7712L51.451 13.5316V2.69333C51.451 1.20875 50.2432 0 48.7576 0H9.24158C7.75603 0 6.54826 1.20856 6.54826 2.69333V13.5316L4.68847 14.7712C4.18988 14.3167 3.53315 14.0322 2.80628 14.0322C1.25924 14.0322 0 15.2913 0 16.8385V21.516C0 23.0632 1.25924 24.3224 2.80648 24.3224C4.35372 24.3224 5.61296 23.0632 5.61296 21.516V19.645H6.54845V42.0964C5.5167 42.0964 4.67747 42.9355 4.67747 43.9674V47.7094C4.67747 48.7411 5.5165 49.5804 6.54845 49.5804H7.48395V54.2578C7.48395 56.3215 9.16222 57.9998 11.2259 57.9998C13.2896 57.9998 14.9679 56.3215 14.9679 54.2578V49.5804H43.0321V54.2578C43.0321 56.3215 44.7104 57.9998 46.7741 57.9998C48.8378 57.9998 50.5161 56.3215 50.5161 54.2578V49.5804H51.4515C52.4833 49.5804 53.3225 48.7413 53.3225 47.7094V43.9674C53.3225 42.9356 52.4835 42.0964 51.4515 42.0964V19.645H52.387V21.516C52.387 23.0632 53.6463 24.3224 55.1935 24.3224C56.7408 24.3224 58 23.0632 58 21.516V16.8385C57.9994 15.2913 56.7402 14.0322 55.1929 14.0322ZM49.5802 35.548H40.8419C40.0916 35.548 39.4172 35.9941 39.1226 36.6827L36.8025 42.0962H21.1969L18.8778 36.6836C18.5822 35.9941 17.9078 35.548 17.1575 35.548H8.41924V33.677H49.5802V35.548ZM8.41924 8.41924H49.5802V31.8062H8.41924V8.41924ZM9.24158 1.87099H48.7578C49.2106 1.87099 49.5802 2.23953 49.5802 2.69333V6.54845H8.41924V2.69333C8.41924 2.23953 8.78877 1.87099 9.24158 1.87099ZM3.74197 21.516C3.74197 22.0314 3.32295 22.4514 2.80648 22.4514C2.29001 22.4514 1.87099 22.0314 1.87099 21.516V16.8385C1.87099 16.323 2.29001 15.903 2.80648 15.903C3.32295 15.903 3.74197 16.323 3.74197 16.8385V21.516ZM5.61276 17.774V16.8385C5.61276 16.699 5.59115 16.5654 5.57151 16.4316L6.54806 15.7796V17.774H5.61276ZM8.41924 39.7577V37.4189H10.758H15.4354H17.1577L19.1625 42.0964H15.4352H10.7578H8.41924V39.7577ZM13.0967 54.2574C13.0967 55.2892 12.2577 56.1284 11.2257 56.1284C10.1938 56.1284 9.35474 55.2894 9.35474 54.2574V49.58H13.0967V54.2574ZM48.6447 54.2574C48.6447 55.2892 47.8056 56.1284 46.7737 56.1284C45.7417 56.1284 44.9027 55.2894 44.9027 54.2574V49.58H48.6447V54.2574ZM51.4512 47.7092H50.5157H43.0319H14.9677H7.48375H6.54826V43.9674H51.451V47.7092H51.4512ZM47.2414 42.0964H42.564H38.8371L40.8419 37.4189H42.5642H47.2416H49.5804V39.7577V42.0964H47.2414ZM51.4512 17.774V15.7796L52.4277 16.4307C52.4081 16.5654 52.3864 16.6992 52.3864 16.8385V17.774H51.4512ZM56.1284 21.516C56.1284 22.0314 55.7094 22.4514 55.1929 22.4514C54.6765 22.4514 54.2574 22.0314 54.2574 21.516V16.8385C54.2574 16.323 54.6765 15.903 55.1929 15.903C55.7094 15.903 56.1284 16.323 56.1284 16.8385V21.516Z" fill="#837AB7"/>
<path d="M29.213 11.568L16.1172 27.4697L17.5606 28.6585L30.6565 12.7568L29.213 11.568Z" fill="#837AB7"/>
<path d="M38.5646 11.568L25.4688 27.4697L26.9122 28.6585L40.0081 12.7568L38.5646 11.568Z" fill="#837AB7"/>
</svg>
