<svg width="58" height="58" viewBox="0 0 58 58" fill="none" xmlns="http://www.w3.org/2000/svg">
<path d="M45.7538 24.3701C44.737 24.3701 43.9102 25.1994 43.9102 26.2199V28.0217H47.6012V26.2199C47.6012 25.1994 46.7707 24.3701 45.7538 24.3701Z" fill="#F9A826"/>
<path d="M50.8759 15.5908H7.12413C3.20851 15.5908 0 18.8018 0 22.7174V35.28C0 39.2018 3.20851 42.4066 7.12413 42.4066H50.8759C54.7915 42.4066 58 39.2018 58 35.28V22.7174C58 18.8018 54.7915 15.5908 50.8759 15.5908ZM15.4996 30.9448L17.2087 32.8057L14.2483 35.027L13.034 32.8057C12.855 32.4886 12.5749 31.8666 12.1812 30.9448C11.7506 31.9579 11.4643 32.575 11.3223 32.8057L10.0908 35.027L7.04762 32.8057L8.88757 30.9448C9.40587 30.4327 9.90813 29.9933 10.4042 29.633C9.89825 29.5873 9.23311 29.4935 8.41247 29.3393L5.86417 28.9247L7.04638 25.4545L9.33183 26.4936C9.57247 26.6022 10.171 26.944 11.1237 27.5104C10.92 26.5886 10.7892 25.9037 10.73 25.4545L10.4054 22.9704H14.0348L13.7411 25.4545C13.6769 26.0592 13.5362 26.7441 13.3277 27.5104C13.746 27.3007 14.0224 27.1612 14.1532 27.0847C14.6123 26.8292 14.9665 26.6528 15.2046 26.5392L17.4913 25.4545L18.6242 28.9247L16.0956 29.4528C15.6329 29.5417 14.9467 29.5997 14.0348 29.633C14.653 30.1167 15.1368 30.5511 15.4996 30.9448ZM32.2542 30.9448L33.9658 32.8057L31.0053 35.0258L29.7923 32.8057C29.6133 32.4886 29.3332 31.8666 28.9408 30.9448C28.5089 31.9579 28.225 32.575 28.0831 32.8057L26.8491 35.0258L23.8071 32.8057L25.6471 30.9448C26.1654 30.4327 26.6664 29.9933 27.1637 29.633C26.6603 29.5873 25.9926 29.4935 25.172 29.3393L22.6225 28.9247L23.8059 25.4545L26.0926 26.4936C26.3308 26.6022 26.9317 26.944 27.8832 27.5104C27.6746 26.5886 27.5438 25.9037 27.4883 25.4545L27.1625 22.9729H30.7931L30.4981 25.4545C30.4315 26.0592 30.2933 26.7441 30.0872 27.5104C30.5031 27.3007 30.7795 27.1612 30.9115 27.0847C31.3681 26.8292 31.7235 26.6528 31.9629 26.5392L34.2509 25.4545L35.3849 28.9247L32.8539 29.4528C32.3911 29.5417 31.7075 29.5997 30.7943 29.633C31.4076 30.1167 31.8926 30.5511 32.2542 30.9448ZM51.0277 34.0891C51.0277 34.853 50.402 35.4774 49.6394 35.4774H41.8711C41.1072 35.4774 40.4828 34.853 40.4828 34.0891V29.4072C40.4828 28.6433 41.1072 28.0189 41.8711 28.0189H42.0586V26.2172C42.0586 24.1773 43.716 22.5175 45.7534 22.5175C47.792 22.5175 49.4506 24.1761 49.4506 26.2172V28.0189H49.6381C50.3995 28.0189 51.0264 28.6433 51.0264 29.4072V34.0891H51.0277Z" fill="#F9A826"/>
</svg>
