<svg width="58" height="58" viewBox="0 0 58 58" fill="none" xmlns="http://www.w3.org/2000/svg">
<path d="M51.4603 9.70501C43.6576 9.70501 38.2368 7.20954 35.063 5.116C31.6155 2.84188 29.9896 0.532647 29.9752 0.512144C29.755 0.191558 29.3906 0.00101953 29.0018 0C29.0007 0 28.9997 0 28.9987 0C28.611 0 28.247 0.191218 28.0257 0.509651C28.0098 0.532761 26.3837 2.84199 22.9363 5.11611C19.7627 7.20966 14.3417 9.70513 6.53914 9.70513C5.8854 9.70513 5.35547 10.2351 5.35547 10.8888V28.7946C5.35547 28.8035 5.35558 28.8127 5.3557 28.8216C5.47532 34.0397 5.81868 38.7403 8.82108 43.4261C12.1608 48.6385 18.4152 53.2347 28.5037 57.8909C28.6611 57.9636 28.8304 57.9998 28.9996 57.9998C29.1688 57.9998 29.3383 57.9634 29.4955 57.8909C39.5841 53.2347 45.8384 48.6386 49.1782 43.4261C52.1806 38.7403 52.524 34.0397 52.6436 28.8216C52.6437 28.8127 52.6438 28.8035 52.6438 28.7946V10.8887C52.644 10.2349 52.114 9.70501 51.4603 9.70501ZM50.2766 28.7811C50.1611 33.8027 49.8584 37.9767 47.1851 42.1489C44.1529 46.8811 38.3677 51.134 28.9997 55.5112C19.6318 51.1342 13.8466 46.8811 10.8145 42.1489C8.14105 37.9768 7.83836 33.8027 7.72293 28.7811V12.0543C15.546 11.8133 21.0538 9.21609 24.3481 7.02071C26.5752 5.5365 28.1035 4.04776 28.9997 3.05134C29.8959 4.04776 31.4243 5.5365 33.6514 7.02071C36.9457 9.21621 42.4534 11.8134 50.2766 12.0543V28.7811Z" fill="#337D5C"/>
<path d="M23.6271 11.2264C23.3252 10.6465 22.6105 10.421 22.0306 10.7227C18.8287 12.3889 15.2249 13.5059 11.3195 14.0426C10.6719 14.1317 10.219 14.7288 10.308 15.3765C10.3895 15.9694 10.8971 16.3991 11.4793 16.3991C11.533 16.3991 11.5873 16.3955 11.6419 16.388C15.8169 15.8141 19.6798 14.6147 23.1234 12.8228C23.7033 12.5211 23.9287 11.8062 23.6271 11.2264Z" fill="#337D5C"/>
<path d="M27.2617 8.75313C26.8738 8.22671 26.1328 8.11456 25.6066 8.50233C25.469 8.60383 25.327 8.70612 25.1809 8.80909C24.6468 9.18609 24.5195 9.92457 24.8964 10.4588C25.127 10.7854 25.4928 10.96 25.8645 10.96C26.1004 10.96 26.3385 10.8896 26.546 10.7433C26.7056 10.6305 26.8604 10.5188 27.0107 10.4082C27.5372 10.0204 27.6494 9.27943 27.2617 8.75313Z" fill="#337D5C"/>
<path d="M29.0014 14.0312C20.5164 14.0312 13.6133 20.9344 13.6133 29.4195C13.6133 37.9044 20.5164 44.8074 29.0014 44.8074C37.4864 44.8074 44.3895 37.9044 44.3895 29.4195C44.3895 20.9344 37.4864 14.0312 29.0014 14.0312ZM29.0014 42.44C24.8615 42.44 21.1669 40.4978 18.7803 37.4768C21.0323 35.3972 23.9684 34.0623 27.1514 33.6891C27.6996 33.6248 28.1305 33.1904 28.1903 32.6416C28.2501 32.093 27.9227 31.5759 27.4014 31.3951C25.438 30.7144 24.1187 28.8604 24.1187 26.7819C24.1187 24.0897 26.309 21.8994 29.0014 21.8994C31.6937 21.8994 33.884 24.0897 33.884 26.7819C33.884 28.8604 32.5647 30.7141 30.6012 31.3951C30.0798 31.5759 29.7525 32.093 29.8124 32.6416C29.8722 33.1902 30.3031 33.6248 30.8513 33.6891C34.0342 34.0624 36.9704 35.3972 39.2225 37.4768C36.8358 40.4978 33.1412 42.44 29.0014 42.44ZM34.0922 31.9432C35.4432 30.6092 36.2514 28.7645 36.2514 26.782C36.2514 22.7845 32.9991 19.5322 29.0014 19.5322C25.0037 19.5322 21.7514 22.7845 21.7514 26.782C21.7514 28.7644 22.5598 30.6091 23.9105 31.9432C21.5132 32.6498 19.3136 33.8531 17.4745 35.4691C16.5213 33.6605 15.9807 31.602 15.9807 29.4196C15.9807 22.2398 21.8219 16.3988 29.0014 16.3988C36.1809 16.3988 42.022 22.2398 42.022 29.4195C42.022 31.6019 41.4814 33.6604 40.5283 35.4691C38.6892 33.8529 36.4896 32.6498 34.0922 31.9432Z" fill="#337D5C"/>
</svg>
