<svg width="58" height="58" viewBox="0 0 58 58" fill="none" xmlns="http://www.w3.org/2000/svg">
<g clip-path="url(#clip0)">
<path d="M30.2698 1.26953C24.3826 1.26953 18.7577 3.09253 14.0037 6.54128C13.459 6.93635 13.311 7.68429 13.6641 8.25726L18.1289 15.5008C18.3168 15.8053 18.623 16.0181 18.9741 16.0875C19.3248 16.1566 19.689 16.0769 19.9789 15.867C22.7578 13.851 26.0462 12.7854 29.4889 12.7854C38.4297 12.7854 45.7035 20.0592 45.7035 29C45.7035 37.9408 38.4297 45.2146 29.4889 45.2146C26.0462 45.2146 22.7578 44.1491 19.9789 42.133C19.689 41.9228 19.3248 41.8428 18.9741 41.9125C18.623 41.9818 18.3168 42.1945 18.1289 42.4991L13.6641 49.7429C13.311 50.3159 13.459 51.0636 14.0037 51.4589C18.7577 54.9078 24.3826 56.7308 30.2698 56.7308C45.5606 56.7308 58.0005 44.2909 58.0005 29.0002C58.0005 13.7095 45.5606 1.26953 30.2698 1.26953Z" fill="white"/>
<path d="M17.6541 39.4008C17.8781 38.9825 17.8535 38.4752 17.5905 38.0807L14.5707 33.551H32.8429C35.3521 33.551 37.3934 31.5097 37.3934 29.0005C37.3934 26.4912 35.3521 24.4499 32.8429 24.4499H14.5707L17.5905 19.9202C17.8537 19.5258 17.8781 19.0184 17.6541 18.6001C17.4303 18.182 16.9946 17.9209 16.5203 17.9209H7.81521C7.38538 17.9209 6.98368 18.1357 6.74523 18.4937L0.216035 28.2871C-0.0720118 28.7191 -0.0720118 29.2817 0.216035 29.7138L6.74504 39.5072C6.98348 39.865 7.38519 40.08 7.81501 40.08H16.5203C16.9948 40.08 17.4305 39.8189 17.6541 39.4008Z" fill="white"/>
</g>
<defs>
<clipPath id="clip0">
<rect width="58" height="58" fill="white"/>
</clipPath>
</defs>
</svg>
