<svg width="650" height="700" viewBox="0 0 650 700" fill="none" xmlns="http://www.w3.org/2000/svg">
<rect width="650" height="700" rx="20" fill="#F2F2F2"/>
<g clip-path="url(#clip0)">
<path d="M561.769 595.913L250.289 570.309L284.617 144.597L596.097 170.201L561.769 595.913Z" fill="url(#paint0_linear)"/>
<path d="M558.035 589.837L254.945 564.915L288.35 150.675L591.44 175.59L558.035 589.837Z" fill="#837AB7"/>
<path d="M575.951 524.331L269.051 583.855L189.25 164.404L496.15 104.881L575.951 524.331Z" fill="url(#paint1_linear)"/>
<path d="M570.741 519.484L272.112 577.407L194.461 169.25L493.091 111.334L570.741 519.484Z" fill="#E0E0E0"/>
<path d="M538.854 136.562H226.344V563.685H538.854V136.562Z" fill="url(#paint2_linear)"/>
<path d="M534.649 142.314H230.555V557.926H534.649V142.314Z" fill="white"/>
<path d="M333.028 214.024C333.359 241.834 355.962 264.109 383.508 263.765C411.054 263.421 433.129 240.61 432.785 212.793C432.678 202.455 429.4 192.401 423.397 183.994C417.393 175.587 408.955 169.236 399.227 165.801L399.38 178.772C399.448 183.282 397.73 187.635 394.603 190.878C391.475 194.121 387.192 195.989 382.693 196.073V196.073C378.202 196.098 373.882 194.34 370.679 191.183C367.476 188.027 365.65 183.727 365.6 179.224L365.447 166.254C355.807 169.921 347.526 176.472 341.727 185.017C335.928 193.563 332.891 203.69 333.028 214.024Z" fill="url(#paint3_linear)"/>
<path d="M432.807 208.724C432.807 180.908 410.477 158.346 382.925 158.346C355.372 158.346 333.043 180.895 333.043 208.724C333.025 219.064 336.181 229.159 342.083 237.639C347.985 246.119 356.348 252.573 366.035 256.125V243.154C366.031 238.651 367.806 234.33 370.971 231.135C374.135 227.94 378.433 226.131 382.925 226.102C387.417 226.131 391.714 227.94 394.879 231.135C398.044 234.33 399.819 238.651 399.815 243.154V256.131C409.503 252.579 417.866 246.124 423.768 237.643C429.67 229.162 432.826 219.065 432.807 208.724V208.724Z" fill="#51A280"/>
<path d="M382.955 221.16C393.545 221.16 402.129 212.492 402.129 201.799C402.129 191.107 393.545 182.438 382.955 182.438C372.366 182.438 363.781 191.107 363.781 201.799C363.781 212.492 372.366 221.16 382.955 221.16Z" fill="white" stroke="white" stroke-miterlimit="10"/>
<path d="M382.925 226.103C378.434 226.131 374.136 227.941 370.971 231.136C367.806 234.331 366.032 238.652 366.035 243.155V256.132C376.95 260.083 388.9 260.083 399.816 256.132V243.155C399.819 238.652 398.045 234.331 394.88 231.136C391.715 227.941 387.417 226.131 382.925 226.103V226.103Z" fill="white" stroke="white" stroke-miterlimit="10"/>
<path d="M363.615 200.728C362.076 197.718 361.37 194.348 361.573 190.971C361.792 187.586 363.316 184.418 365.823 182.139C368.616 179.735 372.401 178.887 376.059 178.594C379.717 178.3 383.426 178.479 387.026 177.758C390.007 177.145 392.836 175.943 395.349 174.222C397.861 172.501 400.006 170.295 401.658 167.733C401.887 170.571 402.116 173.473 401.575 176.253C401.035 179.034 399.61 181.801 397.205 183.268C400.119 181.91 399.8 185.098 399.171 187.005C400.615 188.765 404.12 189.058 404.298 191.335C404.476 193.611 404.444 195.965 403.567 198.063C402.689 200.161 403.63 203.866 401.378 204.025" fill="white"/>
<path d="M363.615 200.728C362.076 197.718 361.37 194.348 361.573 190.971C361.792 187.586 363.316 184.418 365.823 182.139C368.616 179.735 372.401 178.887 376.059 178.594C379.717 178.3 383.426 178.479 387.026 177.758C390.007 177.145 392.836 175.943 395.349 174.222C397.861 172.501 400.006 170.295 401.658 167.733C401.887 170.571 402.116 173.473 401.575 176.253C401.035 179.034 399.61 181.801 397.205 183.268C400.119 181.91 399.8 185.098 399.171 187.005C400.615 188.765 404.12 189.058 404.298 191.335C404.476 193.611 404.444 195.965 403.567 198.063C402.689 200.161 403.63 203.866 401.378 204.025" stroke="white" stroke-miterlimit="10"/>
<path d="M398.273 182.847C398.273 182.847 411.633 184.026 402.129 204.076Z" fill="white"/>
<path d="M300.349 470.924H259.043V512.63H300.349V470.924Z" fill="url(#paint4_linear)"/>
<path d="M296.779 474.521H262.598V509.033H296.779V474.521Z" fill="#6C63FF"/>
<path d="M432.806 298.348H333.105V305.541H432.806V298.348Z" fill="#91B1C6"/>
<path d="M501.175 308.417H333.105V315.61H501.175V308.417Z" fill="#E0E0E0"/>
<path d="M501.175 318.48H333.105V325.674H501.175V318.48Z" fill="#E0E0E0"/>
<path d="M432.806 388.232H333.105V395.426H432.806V388.232Z" fill="#F9A826"/>
<path d="M501.175 398.295H333.105V405.488H501.175V398.295Z" fill="#E0E0E0"/>
<path d="M501.175 408.364H333.105V415.558H501.175V408.364Z" fill="#E0E0E0"/>
<path d="M432.806 478.11H333.105V485.304H432.806V478.11Z" fill="#AC5272"/>
<path d="M501.175 488.18H333.105V495.373H501.175V488.18Z" fill="#E0E0E0"/>
<path d="M501.175 498.249H333.105V505.442H501.175V498.249Z" fill="#E0E0E0"/>
<path d="M200.84 426.711H177.569C175.202 394.137 148.305 368.444 115.434 368.444C81.0112 368.444 53.0898 396.618 53.0898 431.373C53.0898 466.128 80.9921 494.302 115.434 494.302C145.639 494.302 170.819 472.62 176.506 443.802H200.814C203.075 443.802 205.243 442.902 206.842 441.299C208.441 439.697 209.339 437.523 209.339 435.257C209.339 432.99 208.441 430.817 206.842 429.214C205.243 427.612 203.075 426.711 200.814 426.711H200.84Z" fill="url(#paint5_linear)"/>
<path d="M116.606 373.132C84.7464 373.132 58.918 399.208 58.918 431.373C58.918 463.539 84.7464 489.615 116.606 489.615C148.465 489.615 174.293 463.539 174.293 431.373C174.293 399.208 148.465 373.132 116.606 373.132ZM116.606 480.993C89.4667 480.993 67.4681 458.782 67.4681 431.38C67.4681 403.978 89.4667 381.766 116.606 381.766C143.745 381.766 165.743 403.965 165.743 431.386C165.743 458.808 143.745 480.987 116.606 480.987V480.993Z" fill="white"/>
<path d="M169.312 427.062H196.496C198.352 427.063 200.132 427.802 201.444 429.117C202.757 430.433 203.494 432.217 203.494 434.077V435.85C203.494 437.711 202.757 439.495 201.444 440.81C200.132 442.126 198.352 442.865 196.496 442.865H169.312V427.062Z" fill="white"/>
<path d="M116.612 481.707C144.143 481.707 166.462 459.172 166.462 431.373C166.462 403.574 144.143 381.039 116.612 381.039C89.0804 381.039 66.7617 403.574 66.7617 431.373C66.7617 459.172 89.0804 481.707 116.612 481.707Z" fill="#6C63FF"/>
<path opacity="0.2" d="M122.18 412.605C118.293 414.646 116.416 420.258 118.999 423.841C120.03 425.264 121.544 426.207 122.861 427.381C124.177 428.554 125.291 430.193 125.062 431.94C124.837 433.006 124.345 433.996 123.63 434.816C121.016 438.285 117.79 441.582 116.944 445.855C116.181 449.732 117.58 453.788 119.858 457.008C121.13 458.839 122.841 460.535 124.998 461.122C127.384 461.759 129.966 460.918 131.996 459.457C134.025 457.997 135.52 455.982 137.009 453.999L140.476 449.382C141.424 448.106 142.384 446.748 142.486 445.166C142.607 442.45 140.069 440.415 139.204 437.845C137.6 433.075 142.022 428.146 141.43 423.14C140.521 415.577 128.879 409.066 122.18 412.605Z" fill="black"/>
</g>
<defs>
<linearGradient id="paint0_linear" x1="405.946" y1="583.154" x2="440.668" y2="157.293" gradientUnits="userSpaceOnUse">
<stop stop-color="#808080" stop-opacity="0.25"/>
<stop offset="0.54" stop-color="#808080" stop-opacity="0.12"/>
<stop offset="1" stop-color="#808080" stop-opacity="0.1"/>
</linearGradient>
<linearGradient id="paint1_linear" x1="332372" y1="324954" x2="271694" y2="9731.16" gradientUnits="userSpaceOnUse">
<stop stop-color="#808080" stop-opacity="0.25"/>
<stop offset="0.54" stop-color="#808080" stop-opacity="0.12"/>
<stop offset="1" stop-color="#808080" stop-opacity="0.1"/>
</linearGradient>
<linearGradient id="paint2_linear" x1="162085" y1="307434" x2="162085" y2="21356" gradientUnits="userSpaceOnUse">
<stop stop-color="#808080" stop-opacity="0.25"/>
<stop offset="0.54" stop-color="#808080" stop-opacity="0.12"/>
<stop offset="1" stop-color="#808080" stop-opacity="0.1"/>
</linearGradient>
<linearGradient id="paint3_linear" x1="386.086" y1="262.952" x2="380.977" y2="164.647" gradientUnits="userSpaceOnUse">
<stop stop-opacity="0.12"/>
<stop offset="0.55" stop-opacity="0.09"/>
<stop offset="1" stop-opacity="0.02"/>
</linearGradient>
<linearGradient id="paint4_linear" x1="14971.1" y1="27137.7" x2="14971.1" y2="24410.1" gradientUnits="userSpaceOnUse">
<stop stop-color="#808080" stop-opacity="0.25"/>
<stop offset="0.54" stop-color="#808080" stop-opacity="0.12"/>
<stop offset="1" stop-color="#808080" stop-opacity="0.1"/>
</linearGradient>
<linearGradient id="paint5_linear" x1="46302.8" y1="85405.3" x2="46302.8" y2="60566.1" gradientUnits="userSpaceOnUse">
<stop stop-color="#808080" stop-opacity="0.25"/>
<stop offset="0.54" stop-color="#808080" stop-opacity="0.12"/>
<stop offset="1" stop-color="#808080" stop-opacity="0.1"/>
</linearGradient>
<clipPath id="clip0">
<rect width="542.988" height="491.033" fill="white" transform="translate(53.1094 104.881)"/>
</clipPath>
</defs>
</svg>
