<svg width="380" height="340" viewBox="0 0 570 512" fill="none" xmlns="http://www.w3.org/2000/svg">
<g clip-path="url(#clip0)">
<path d="M564.999 195.675C564.795 195.675 564.596 195.612 564.429 195.496L287.87 2.89208C287.028 2.30868 286.028 1.9969 285.004 1.99865C283.98 2.0004 282.981 2.31558 282.141 2.90185L7.57454 195.494C7.35737 195.646 7.08859 195.706 6.82732 195.66C6.56604 195.614 6.33367 195.466 6.18135 195.249C6.02903 195.032 5.96921 194.763 6.01506 194.502C6.06091 194.241 6.20868 194.008 6.42586 193.856L280.993 1.26415C282.168 0.443505 283.567 0.00236562 285.001 9.48758e-06C286.435 -0.00234665 287.835 0.434189 289.013 1.25097L565.572 193.854C565.746 193.976 565.878 194.15 565.946 194.352C566.015 194.553 566.018 194.771 565.954 194.974C565.89 195.178 565.763 195.355 565.591 195.481C565.42 195.607 565.212 195.675 564.999 195.675L564.999 195.675Z" fill="#3F3D56"/>
<path d="M23.2656 202.502L285.278 8.31934L549.278 216.319L298.778 364.819L162.778 333.819L23.2656 202.502Z" fill="#E6E6E6"/>
<path d="M174.257 456.541H44.8169C44.0221 456.542 43.2348 456.386 42.5002 456.083C41.7656 455.78 41.0981 455.334 40.5357 454.773C39.9733 454.211 39.5272 453.544 39.2228 452.81C38.9184 452.075 38.7617 451.288 38.7617 450.494C38.7617 449.699 38.9184 448.912 39.2228 448.178C39.5272 447.443 39.9733 446.776 40.5357 446.215C41.0981 445.653 41.7656 445.208 42.5002 444.904C43.2348 444.601 44.0221 444.445 44.8169 444.446H174.257C175.052 444.445 175.839 444.601 176.574 444.904C177.308 445.208 177.976 445.653 178.538 446.215C179.101 446.776 179.547 447.443 179.851 448.178C180.156 448.912 180.312 449.699 180.312 450.494C180.312 451.288 180.156 452.075 179.851 452.81C179.547 453.544 179.101 454.211 178.538 454.773C177.976 455.334 177.308 455.78 176.574 456.083C175.839 456.386 175.052 456.542 174.257 456.541Z" fill="#536DFE"/>
<path d="M91.2572 430.541H44.8169C44.0221 430.542 43.2348 430.386 42.5002 430.083C41.7656 429.78 41.0981 429.334 40.5357 428.773C39.9733 428.211 39.5272 427.544 39.2228 426.81C38.9184 426.075 38.7617 425.288 38.7617 424.494C38.7617 423.699 38.9184 422.912 39.2228 422.178C39.5272 421.443 39.9733 420.776 40.5357 420.215C41.0981 419.653 41.7656 419.208 42.5002 418.904C43.2348 418.601 44.0221 418.445 44.8169 418.446H91.2572C92.052 418.445 92.8392 418.601 93.5738 418.904C94.3084 419.208 94.976 419.653 95.5383 420.215C96.1007 420.776 96.5469 421.443 96.8513 422.178C97.1557 422.912 97.3123 423.699 97.3123 424.494C97.3123 425.288 97.1557 426.075 96.8513 426.81C96.5469 427.544 96.1007 428.211 95.5383 428.773C94.976 429.334 94.3084 429.78 93.5738 430.083C92.8392 430.386 92.052 430.542 91.2572 430.541Z" fill="#536DFE"/>
<path d="M288.96 310.66C287.976 310.661 287.002 310.47 286.091 310.098L124.5 243.049V33.1748C124.502 31.319 125.24 29.5397 126.553 28.2274C127.865 26.9152 129.644 26.177 131.5 26.1748H441.5C443.356 26.177 445.135 26.9152 446.447 28.2274C447.76 29.5397 448.498 31.319 448.5 33.1748V243.195L448.196 243.325L291.916 310.065C290.98 310.458 289.975 310.66 288.96 310.66Z" fill="white"/>
<path d="M288.96 311.159C287.911 311.16 286.872 310.957 285.9 310.561L124 243.383V33.1748C124.002 31.1864 124.793 29.28 126.199 27.874C127.605 26.468 129.512 25.6771 131.5 25.6748H441.5C443.488 25.6771 445.395 26.468 446.801 27.874C448.207 29.28 448.998 31.1864 449 33.1748V243.525L292.112 310.524C291.114 310.944 290.043 311.16 288.96 311.159ZM126 242.047L286.663 308.711C288.162 309.319 289.84 309.309 291.331 308.684L447 242.205V33.1748C446.998 31.7166 446.418 30.3187 445.387 29.2876C444.356 28.2566 442.958 27.6765 441.5 27.6748H131.5C130.042 27.6765 128.644 28.2566 127.613 29.2876C126.582 30.3187 126.002 31.7166 126 33.1748L126 242.047Z" fill="#3F3D56"/>
<path d="M563 193.675H562.8L448 242.695L290.93 309.765C290.316 310.023 289.658 310.158 288.992 310.161C288.326 310.165 287.666 310.037 287.05 309.785L125 242.555L7.37988 193.755L7.2002 193.675H7C5.14412 193.677 3.36483 194.415 2.05252 195.727C0.740212 197.04 0.00205925 198.819 0 200.675V504.675C0.00206189 506.531 0.740213 508.31 2.05252 509.622C3.36483 510.935 5.14412 511.673 7 511.675H563C564.856 511.673 566.635 510.935 567.947 509.622C569.26 508.31 569.998 506.531 570 504.675V200.675C569.998 198.819 569.26 197.04 567.947 195.727C566.635 194.415 564.856 193.677 563 193.675ZM568 504.675C567.999 506.001 567.473 507.272 566.535 508.21C565.597 509.147 564.326 509.674 563 509.675H7C5.67408 509.674 4.40262 509.147 3.46506 508.21C2.52749 507.272 2.00053 506.001 2 504.675V200.675C2.00181 199.382 2.50336 198.14 3.39978 197.208C4.2962 196.276 5.5181 195.727 6.81006 195.675L125 244.715L286.28 311.635C288.026 312.345 289.982 312.334 291.72 311.605L448 244.865L563.2 195.675C564.49 195.73 565.708 196.281 566.602 197.213C567.496 198.144 567.997 199.384 568 200.675V504.675Z" fill="#3F3D56"/>
<path d="M287.347 251.147C281.381 251.158 275.574 249.229 270.801 245.651L270.505 245.429L208.194 197.721C205.308 195.51 202.886 192.752 201.066 189.605C199.246 186.458 198.064 182.983 197.587 179.379C197.11 175.775 197.347 172.113 198.286 168.6C199.224 165.088 200.845 161.795 203.056 158.909C205.267 156.024 208.025 153.602 211.172 151.782C214.319 149.962 217.794 148.779 221.398 148.302C225.002 147.825 228.665 148.063 232.177 149.001C235.689 149.94 238.982 151.561 241.868 153.772L282.228 184.72L377.606 60.3328C379.818 57.4478 382.577 55.0267 385.725 53.2079C388.872 51.389 392.348 50.208 395.952 49.7322C399.556 49.2565 403.219 49.4953 406.73 50.435C410.242 51.3748 413.535 52.9971 416.42 55.2093L415.827 56.0144L416.435 55.221C422.254 59.6936 426.062 66.2919 427.023 73.5683C427.983 80.8447 426.018 88.2051 421.558 94.0345L309.371 240.343C306.776 243.715 303.44 246.443 299.62 248.317C295.801 250.19 291.601 251.159 287.347 251.147Z" fill="#536DFE"/>
</g>
<defs>
<clipPath id="clip0">
<rect width="570" height="511.675" fill="white"/>
</clipPath>
</defs>
</svg>
