<svg width="160" height="160" viewBox="0 0 160 160" fill="none" xmlns="http://www.w3.org/2000/svg">
<path d="M80 160C124.183 160 160 124.183 160 80C160 35.8172 124.183 0 80 0C35.8172 0 0 35.8172 0 80C0 124.183 35.8172 160 80 160Z" fill="#536DFE"/>
<path d="M112.046 46.4287H47.9552C45.1232 46.4319 42.4081 47.5583 40.4056 49.5609C38.4031 51.5634 37.2766 54.2785 37.2734 57.1105V102.889C37.2766 105.722 38.403 108.437 40.4055 110.439C42.408 112.442 45.1232 113.568 47.9552 113.571H112.046C114.878 113.568 117.593 112.442 119.596 110.439C121.598 108.437 122.725 105.722 122.728 102.889V57.1105C122.725 54.2785 121.598 51.5634 119.596 49.5609C117.593 47.5583 114.878 46.4319 112.046 46.4287ZM112.046 52.5326C112.429 52.5341 112.809 52.5838 113.18 52.6805L80.008 79.1418L47.0303 52.6266C47.3346 52.564 47.6445 52.5325 47.9552 52.5326H112.046ZM112.046 107.467H47.9552C46.7415 107.466 45.5779 106.983 44.7197 106.125C43.8614 105.267 43.3786 104.103 43.3773 102.889V57.5216L78.0883 85.4305C78.6288 85.865 79.3012 86.1025 79.9948 86.1039C80.6883 86.1052 81.3616 85.8702 81.9038 85.4377L116.624 57.741V102.889C116.623 104.103 116.14 105.267 115.282 106.125C114.423 106.983 113.26 107.466 112.046 107.467Z" fill="white"/>
</svg>
