<svg width="453" height="313" viewBox="0 0 906 625" fill="none" xmlns="http://www.w3.org/2000/svg">
<g clip-path="url(#clip0)">
<path opacity="0.1" d="M512.46 85.0911C454.387 85.1688 398.489 68.7188 345.022 50.4444C291.556 32.17 238.501 11.7065 181.508 3.03509C144.853 -2.53882 103.173 -2.02645 74.5204 18.212C46.9404 37.6818 38.9538 69.9065 35.1004 99.678C32.2025 122.075 30.8663 145.581 41.7196 166.068C49.2555 180.29 62.1521 192.012 71.2419 205.567C102.971 252.72 83.8898 312.954 53.0546 361.202C38.5964 383.839 21.66 405.537 10.7289 429.47C-0.202065 453.404 -4.68479 480.544 6.46376 504.167C17.5113 527.581 42.4654 544.574 69.2452 556.18C123.628 579.795 186.946 584.857 248.562 586.805C384.955 591.129 521.612 582.31 657.904 573.492C708.34 570.231 759.002 566.947 808.398 557.499C835.822 552.259 864.063 544.481 883.509 527.433C908.191 505.789 913.241 470.452 895.279 445.051C865.158 402.447 785.735 394.412 764.138 348.315C752.228 322.937 762.498 293.833 777.625 269.372C810.068 216.885 865.912 169.872 866.852 111.167C867.497 70.8536 838.456 31.5257 795.082 14.0044C749.617 -4.34762 687.628 0.372348 655.775 34.5766C623.021 69.8133 563.736 85.0368 512.46 85.0911Z" fill="#F9A826"/>
<path d="M771.101 501C771.101 501 761.553 494.704 752.09 499.183C752.09 499.183 755.003 504.788 766.983 504.26L771.101 501Z" fill="#F9A826"/>
<path d="M772.31 501.334C772.31 501.334 775.215 512.389 767.928 519.911C767.928 519.911 763.546 515.354 767.928 504.191L772.31 501.334Z" fill="#F9A826"/>
<path d="M784.182 490.722C784.182 490.722 783.475 481.321 762.227 484.441C762.227 484.441 762.126 490.504 769.584 493.377C777.042 496.249 780.461 493.827 784.182 490.722Z" fill="#F9A826"/>
<path d="M785.519 490.659C785.519 490.659 794.5 493.539 786.49 513.452C786.49 513.452 780.562 512.132 779.498 504.206C778.434 496.28 781.588 493.547 785.519 490.659Z" fill="#F9A826"/>
<path d="M797.512 477.322C797.512 477.322 798.732 461.85 777.017 463.434C777.017 463.434 775.464 477.408 793.682 481.041L797.512 477.322Z" fill="#F9A826"/>
<path d="M811.862 459.856C811.862 459.856 808.886 442.319 787.18 447.543C787.18 447.543 787.102 462.705 808.319 464.032L811.862 459.856Z" fill="#F9A826"/>
<path d="M822.352 441.798C822.352 441.798 817.364 424.719 795.859 429.828C795.859 429.828 800.979 445.191 820.922 444.95L822.352 441.798Z" fill="#F9A826"/>
<path d="M832.31 424.161C832.31 424.161 827.438 406.438 806.672 411.74C806.672 411.74 813.602 428.578 830.934 427.158L832.31 424.161Z" fill="#F9A826"/>
<path d="M838.726 407.408C838.726 407.408 834.981 385.734 815.621 390.531C815.621 390.531 821.246 410.249 837.304 410.568L838.726 407.408Z" fill="#F9A826"/>
<path d="M844.748 387.17C844.748 387.17 840.25 365.324 820.664 371.643C820.664 371.643 828.34 392.293 843.357 390.158L844.748 387.17Z" fill="#F9A826"/>
<path d="M848.446 368.336C848.446 368.336 841.306 346.483 826.164 347.073C826.164 347.073 833.459 370.153 847.179 372.691L848.446 368.336Z" fill="#F9A826"/>
<path d="M850.841 349.953C850.841 349.953 843.072 323.652 830.75 325.678C830.75 325.678 836.126 345.784 850.406 354.052L850.841 349.953Z" fill="#F9A826"/>
<path d="M852.192 328.022C852.192 328.022 844.905 306.107 832.77 305.229C832.77 305.229 837.726 326.795 851.951 333.72L852.192 328.022Z" fill="#F9A826"/>
<path d="M853.658 307.558C853.658 307.558 844.576 285.62 836.566 285.123C836.566 285.123 840.513 306.728 852.881 311.161L853.658 307.558Z" fill="#F9A826"/>
<path d="M854.662 288.523C854.662 288.523 849.076 264.698 841.051 262.719C841.051 262.719 842.146 282.212 853.854 290.309L854.662 288.523Z" fill="#F9A826"/>
<path d="M857.692 263.588C857.692 263.588 851.819 244.592 845.316 241.696C845.316 241.696 846.598 264.093 856.193 268.231L857.692 263.588Z" fill="#F9A826"/>
<path d="M860.201 247.286L861.382 213.796C861.382 213.796 849.224 239.042 859.323 253.163L860.201 247.286Z" fill="#F9A826"/>
<path d="M869.586 213.974C869.586 213.974 878.341 189.521 880.462 188.154C880.462 188.154 863.293 204.022 864.971 224.431L869.586 213.974Z" fill="#F9A826"/>
<path d="M798.105 477.206C798.105 477.206 813.504 475.196 813.045 496.94C813.045 496.94 799.131 499.207 794.586 481.22L798.105 477.206Z" fill="#F9A826"/>
<path d="M812.593 459.266C812.593 459.266 830.384 459.211 828.908 481.468C828.908 481.468 813.969 484.139 809.043 463.473L812.593 459.266Z" fill="#F9A826"/>
<path d="M822.523 443.234C822.523 443.234 838.675 435.665 849.008 455.205C849.008 455.205 834.091 461.509 821.094 446.394L822.523 443.234Z" fill="#F9A826"/>
<path d="M832.668 424.324C832.668 424.324 849.208 416.273 858.92 435.355C858.92 435.355 841.688 441.286 831.301 427.344L832.668 424.324Z" fill="#F9A826"/>
<path d="M838.519 407.882C838.519 407.882 854.438 392.689 867.14 408.052C867.14 408.052 850.88 420.559 837.789 411.266L838.519 407.882Z" fill="#F9A826"/>
<path d="M843.848 386.65C843.848 386.65 859.86 371.124 872.462 387.364C872.462 387.364 854.492 400.119 843.273 389.91L843.848 386.65Z" fill="#F9A826"/>
<path d="M846.84 367.715C846.84 367.715 859.177 348.307 873.705 352.639C873.705 352.639 860.902 373.188 846.98 372.272L846.84 367.715Z" fill="#F9A826"/>
<path d="M850.475 349.829C850.475 349.829 862.905 325.391 874.668 329.645C874.668 329.645 865.702 348.431 850.156 353.951L850.475 349.829Z" fill="#F9A826"/>
<path d="M851.337 326.749C851.337 326.749 864.117 307.512 876.089 309.864C876.089 309.864 865.64 329.373 850.094 332.315L851.337 326.749Z" fill="#F9A826"/>
<path d="M852.332 307.132C852.332 307.132 862.238 285.543 870.286 285.396C870.286 285.396 865.532 306.829 853 310.796L852.332 307.132Z" fill="#F9A826"/>
<path d="M854.273 288.058C854.273 288.058 865.282 266.197 873.556 266.15C873.556 266.15 867.924 284.844 854.639 289.975L854.273 288.058Z" fill="#F9A826"/>
<path d="M855.93 264.955C855.93 264.955 864.165 246.867 870.986 244.817C870.986 244.817 866.869 266.865 856.839 269.752L855.93 264.955Z" fill="#F9A826"/>
<path d="M861.18 246.626L879.585 218.609C879.585 218.609 874.869 246.246 858.492 251.991L861.18 246.626Z" fill="#F9A826"/>
<path d="M873.813 216.234C873.813 216.234 895.202 201.484 895.978 199.101C895.978 199.101 885.102 219.758 864.902 223.407L873.813 216.234Z" fill="#F9A826"/>
<path d="M875.094 209.596C875.094 209.596 899.652 186.004 905.922 186.027C905.922 186.027 885.668 186.951 874.504 208.339L875.094 209.596Z" fill="#F9A826"/>
<path d="M856.168 268.456L857.061 268.572C861.676 232.482 868.404 211.125 876.002 208.509L875.707 207.655C867.651 210.45 860.876 231.48 856.168 268.456Z" fill="#444053"/>
<path d="M849.379 354.766L850.731 354.875C851.018 351.505 851.236 348.059 851.383 344.619C852.673 314.747 854.67 287.312 857.296 266.748L856.519 265.777C853.885 286.388 851.321 314.646 850.032 344.565C849.884 347.981 849.666 351.412 849.379 354.766Z" fill="#444053"/>
<path d="M745.898 518.218C746.131 518.117 769.928 507.497 794.626 482.174C809.096 467.342 821.119 450.311 830.246 431.714C841.667 408.479 848.628 379.926 850.959 352.188L849.553 352.848C844.309 415.108 815.944 457.65 793.39 480.823C768.933 505.921 745.401 516.433 745.168 516.533L745.898 518.218Z" fill="#444053"/>
<path d="M807.512 66.165H61.0018C59.2381 66.165 57.5466 66.8652 56.2994 68.1114C55.0522 69.3576 54.3516 71.0478 54.3516 72.8103V92.1715H814.162V72.8103C814.162 71.0478 813.461 69.3576 812.214 68.1114C810.967 66.8652 809.275 66.165 807.512 66.165Z" fill="#3F3D56"/>
<path opacity="0.8" d="M66.385 82.0796C68.1012 82.0796 69.4926 80.6894 69.4926 78.9744C69.4926 77.2594 68.1012 75.8691 66.385 75.8691C64.6687 75.8691 63.2773 77.2594 63.2773 78.9744C63.2773 80.6894 64.6687 82.0796 66.385 82.0796Z" fill="#FA5959"/>
<path opacity="0.8" d="M74.9318 82.0796C76.6481 82.0796 78.0394 80.6894 78.0394 78.9744C78.0394 77.2594 76.6481 75.8691 74.9318 75.8691C73.2155 75.8691 71.8242 77.2594 71.8242 78.9744C71.8242 80.6894 73.2155 82.0796 74.9318 82.0796Z" fill="#FED253"/>
<path opacity="0.8" d="M83.4787 82.0796C85.195 82.0796 86.5863 80.6894 86.5863 78.9744C86.5863 77.2594 85.195 75.8691 83.4787 75.8691C81.7624 75.8691 80.3711 77.2594 80.3711 78.9744C80.3711 80.6894 81.7624 82.0796 83.4787 82.0796Z" fill="#8CCF4D"/>
<path opacity="0.05" d="M735.626 164.818H124.98V433.127H735.626V164.818Z" fill="black"/>
<path d="M730.963 166.853H129.641V429.246H730.963V166.853Z" fill="#3F3D56"/>
<path d="M293.568 234.384C281.736 234.384 270.17 237.89 260.333 244.458C250.495 251.026 242.828 260.362 238.3 271.284C233.772 282.207 232.587 294.226 234.896 305.821C237.204 317.417 242.901 328.068 251.267 336.428C259.634 344.787 270.293 350.481 281.897 352.787C293.501 355.093 305.529 353.91 316.46 349.385C327.391 344.861 336.734 337.2 343.307 327.369C349.881 317.539 353.389 305.982 353.389 294.16C353.389 286.31 351.842 278.537 348.835 271.284C345.829 264.032 341.423 257.442 335.868 251.892C330.313 246.341 323.718 241.938 316.46 238.934C309.202 235.93 301.423 234.384 293.568 234.384ZM304.297 295.596V323.9H283.149V295.596C280.223 293.382 278.066 290.306 276.983 286.802C275.901 283.298 275.947 279.542 277.115 276.065C278.284 272.589 280.515 269.566 283.495 267.425C286.475 265.284 290.053 264.132 293.723 264.132C297.393 264.132 300.971 265.284 303.951 267.425C306.931 269.566 309.162 272.589 310.331 276.065C311.499 279.542 311.545 283.298 310.463 286.802C309.38 290.306 307.223 293.382 304.297 295.596Z" fill="#F9A826"/>
<path opacity="0.05" d="M293.568 234.384C281.736 234.384 270.17 237.89 260.333 244.458C250.495 251.026 242.828 260.362 238.3 271.284C233.772 282.207 232.587 294.226 234.896 305.821C237.204 317.417 242.901 328.068 251.267 336.428C259.634 344.787 270.293 350.481 281.897 352.787C293.501 355.093 305.529 353.91 316.46 349.385C327.391 344.861 336.734 337.2 343.307 327.369C349.881 317.539 353.389 305.982 353.389 294.16C353.389 286.31 351.842 278.537 348.835 271.284C345.829 264.032 341.423 257.442 335.868 251.892C330.313 246.341 323.718 241.938 316.46 238.934C309.202 235.93 301.423 234.384 293.568 234.384ZM304.297 295.596V323.9H283.149V295.596C280.223 293.382 278.066 290.306 276.983 286.802C275.901 283.298 275.947 279.542 277.115 276.065C278.284 272.589 280.515 269.566 283.495 267.425C286.475 265.284 290.053 264.132 293.723 264.132C297.393 264.132 300.971 265.284 303.951 267.425C306.931 269.566 309.162 272.589 310.331 276.065C311.499 279.542 311.545 283.298 310.463 286.802C309.38 290.306 307.223 293.382 304.297 295.596Z" fill="black"/>
<path d="M293.57 217.305C278.358 217.305 263.487 221.812 250.839 230.257C238.191 238.702 228.332 250.705 222.511 264.748C216.69 278.792 215.166 294.245 218.134 309.153C221.102 324.061 228.427 337.756 239.184 348.504C249.94 359.252 263.645 366.572 278.565 369.537C293.484 372.503 308.949 370.981 323.003 365.164C337.057 359.347 349.069 349.496 357.521 336.858C365.972 324.219 370.483 309.36 370.483 294.159C370.483 273.776 362.38 254.228 347.956 239.815C333.531 225.402 313.968 217.305 293.57 217.305ZM307.36 296.007V332.393H280.168V296.007C276.404 293.161 273.63 289.205 272.237 284.698C270.844 280.191 270.903 275.361 272.405 270.89C273.908 266.418 276.778 262.531 280.61 259.777C284.442 257.024 289.043 255.542 293.764 255.542C298.484 255.542 303.085 257.024 306.918 259.777C310.75 262.531 313.62 266.418 315.122 270.89C316.625 275.361 316.684 280.191 315.291 284.698C313.898 289.205 311.124 293.161 307.36 296.007Z" fill="#F9A826"/>
<path d="M650.945 284.075H402.336V310.47H650.945V284.075Z" fill="white"/>
<path d="M650.942 332.207H597.336V358.602H650.942V332.207Z" fill="#F9A826"/>
<path d="M426.808 296.877H422.31L426.311 292.886C426.382 292.812 426.423 292.714 426.423 292.611C426.423 292.508 426.382 292.409 426.311 292.335C426.275 292.299 426.232 292.27 426.184 292.25C426.137 292.23 426.086 292.22 426.035 292.22C425.984 292.22 425.933 292.23 425.886 292.25C425.838 292.27 425.795 292.299 425.759 292.335L421.758 296.333V291.831C421.758 291.728 421.717 291.629 421.644 291.556C421.572 291.483 421.473 291.442 421.37 291.442C421.267 291.444 421.17 291.486 421.097 291.558C421.025 291.631 420.983 291.728 420.981 291.831V296.333L416.988 292.312C416.952 292.275 416.909 292.247 416.862 292.227C416.814 292.207 416.763 292.197 416.712 292.197C416.661 292.197 416.61 292.207 416.563 292.227C416.515 292.247 416.472 292.275 416.436 292.312C416.365 292.386 416.325 292.485 416.325 292.587C416.325 292.69 416.365 292.789 416.436 292.863L420.437 296.853H415.931C415.829 296.855 415.731 296.897 415.659 296.969C415.586 297.042 415.545 297.139 415.543 297.241C415.543 297.344 415.584 297.443 415.657 297.516C415.73 297.589 415.828 297.63 415.931 297.63H420.437L416.436 301.628C416.365 301.701 416.325 301.8 416.325 301.903C416.325 302.006 416.365 302.105 416.436 302.179C416.511 302.249 416.61 302.287 416.712 302.287C416.815 302.287 416.913 302.249 416.988 302.179L420.981 298.181V302.676C420.981 302.779 421.022 302.877 421.095 302.95C421.168 303.023 421.267 303.064 421.37 303.064C421.473 303.064 421.572 303.023 421.644 302.95C421.717 302.877 421.758 302.779 421.758 302.676V298.181L425.759 302.179C425.834 302.249 425.933 302.287 426.035 302.287C426.137 302.287 426.236 302.249 426.311 302.179C426.382 302.105 426.423 302.006 426.423 301.903C426.423 301.8 426.382 301.701 426.311 301.628L422.31 297.63H426.808C426.911 297.63 427.01 297.589 427.083 297.516C427.156 297.443 427.197 297.344 427.197 297.241C427.191 297.143 427.147 297.05 427.075 296.982C427.003 296.914 426.907 296.876 426.808 296.877Z" fill="#F9A826"/>
<path d="M443.121 296.877H438.622L442.623 292.886C442.695 292.812 442.735 292.714 442.735 292.611C442.735 292.508 442.695 292.409 442.623 292.335C442.587 292.299 442.544 292.27 442.497 292.25C442.45 292.23 442.399 292.22 442.347 292.22C442.296 292.22 442.245 292.23 442.198 292.25C442.151 292.27 442.108 292.299 442.072 292.335L438.071 296.333V291.831C438.071 291.728 438.03 291.629 437.957 291.556C437.884 291.483 437.785 291.442 437.682 291.442C437.58 291.444 437.482 291.486 437.41 291.558C437.337 291.631 437.296 291.728 437.294 291.831V296.333L433.3 292.312C433.264 292.275 433.221 292.247 433.174 292.227C433.127 292.207 433.076 292.197 433.025 292.197C432.973 292.197 432.923 292.207 432.875 292.227C432.828 292.247 432.785 292.275 432.749 292.312C432.677 292.386 432.637 292.485 432.637 292.587C432.637 292.69 432.677 292.789 432.749 292.863L436.75 296.853H432.244C432.142 296.855 432.044 296.897 431.971 296.969C431.899 297.042 431.857 297.139 431.855 297.241C431.855 297.344 431.896 297.443 431.969 297.516C432.042 297.589 432.141 297.63 432.244 297.63H436.75L432.749 301.628C432.677 301.701 432.637 301.8 432.637 301.903C432.637 302.006 432.677 302.105 432.749 302.179C432.824 302.249 432.922 302.287 433.025 302.287C433.127 302.287 433.226 302.249 433.3 302.179L437.294 298.181V302.676C437.294 302.779 437.335 302.877 437.408 302.95C437.48 303.023 437.579 303.064 437.682 303.064C437.785 303.064 437.884 303.023 437.957 302.95C438.03 302.877 438.071 302.779 438.071 302.676V298.181L442.072 302.179C442.147 302.249 442.245 302.287 442.347 302.287C442.45 302.287 442.548 302.249 442.623 302.179C442.695 302.105 442.735 302.006 442.735 301.903C442.735 301.8 442.695 301.701 442.623 301.628L438.622 297.63H443.121C443.224 297.63 443.322 297.589 443.395 297.516C443.468 297.443 443.509 297.344 443.509 297.241C443.503 297.143 443.459 297.05 443.387 296.982C443.315 296.914 443.22 296.876 443.121 296.877Z" fill="#F9A826"/>
<path d="M459.437 296.877H454.939L458.94 292.886C459.011 292.812 459.051 292.714 459.051 292.611C459.051 292.508 459.011 292.409 458.94 292.335C458.904 292.299 458.861 292.27 458.813 292.25C458.766 292.23 458.715 292.22 458.664 292.22C458.613 292.22 458.562 292.23 458.515 292.25C458.467 292.27 458.424 292.299 458.388 292.335L454.387 296.333V291.831C454.387 291.728 454.346 291.629 454.273 291.556C454.2 291.483 454.102 291.442 453.999 291.442C453.896 291.444 453.799 291.486 453.726 291.558C453.654 291.631 453.612 291.728 453.61 291.831V296.333L449.617 292.312C449.581 292.275 449.538 292.247 449.49 292.227C449.443 292.207 449.392 292.197 449.341 292.197C449.29 292.197 449.239 292.207 449.192 292.227C449.144 292.247 449.101 292.275 449.065 292.312C448.994 292.386 448.954 292.485 448.954 292.587C448.954 292.69 448.994 292.789 449.065 292.863L453.066 296.853H448.56C448.458 296.855 448.36 296.897 448.288 296.969C448.215 297.042 448.174 297.139 448.172 297.241C448.172 297.344 448.213 297.443 448.286 297.516C448.358 297.589 448.457 297.63 448.56 297.63H453.066L449.065 301.628C448.994 301.701 448.954 301.8 448.954 301.903C448.954 302.006 448.994 302.105 449.065 302.179C449.14 302.249 449.239 302.287 449.341 302.287C449.443 302.287 449.542 302.249 449.617 302.179L453.61 298.181V302.676C453.61 302.779 453.651 302.877 453.724 302.95C453.797 303.023 453.896 303.064 453.999 303.064C454.102 303.064 454.2 303.023 454.273 302.95C454.346 302.877 454.387 302.779 454.387 302.676V298.181L458.388 302.179C458.463 302.249 458.562 302.287 458.664 302.287C458.766 302.287 458.865 302.249 458.94 302.179C459.011 302.105 459.051 302.006 459.051 301.903C459.051 301.8 459.011 301.701 458.94 301.628L454.939 297.63H459.437C459.54 297.63 459.639 297.589 459.712 297.516C459.784 297.443 459.825 297.344 459.825 297.241C459.819 297.143 459.776 297.05 459.704 296.982C459.632 296.914 459.536 296.876 459.437 296.877Z" fill="#F9A826"/>
<path d="M475.749 296.877H471.251L475.252 292.886C475.324 292.812 475.364 292.714 475.364 292.611C475.364 292.508 475.324 292.409 475.252 292.335C475.216 292.299 475.173 292.27 475.126 292.25C475.079 292.23 475.028 292.22 474.976 292.22C474.925 292.22 474.874 292.23 474.827 292.25C474.78 292.27 474.737 292.299 474.701 292.335L470.7 296.333V291.831C470.7 291.728 470.659 291.629 470.586 291.556C470.513 291.483 470.414 291.442 470.311 291.442C470.209 291.444 470.111 291.486 470.039 291.558C469.966 291.631 469.925 291.728 469.923 291.831V296.333L465.929 292.312C465.893 292.275 465.85 292.247 465.803 292.227C465.756 292.207 465.705 292.197 465.654 292.197C465.602 292.197 465.552 292.207 465.504 292.227C465.457 292.247 465.414 292.275 465.378 292.312C465.306 292.386 465.266 292.485 465.266 292.587C465.266 292.69 465.306 292.789 465.378 292.863L469.379 296.853H464.873C464.77 296.855 464.673 296.897 464.6 296.969C464.528 297.042 464.486 297.139 464.484 297.241C464.484 297.344 464.525 297.443 464.598 297.516C464.671 297.589 464.77 297.63 464.873 297.63H469.379L465.378 301.628C465.306 301.701 465.266 301.8 465.266 301.903C465.266 302.006 465.306 302.105 465.378 302.179C465.453 302.249 465.551 302.287 465.654 302.287C465.756 302.287 465.855 302.249 465.929 302.179L469.923 298.181V302.676C469.923 302.779 469.964 302.877 470.036 302.95C470.109 303.023 470.208 303.064 470.311 303.064C470.414 303.064 470.513 303.023 470.586 302.95C470.659 302.877 470.7 302.779 470.7 302.676V298.181L474.701 302.179C474.775 302.249 474.874 302.287 474.976 302.287C475.079 302.287 475.177 302.249 475.252 302.179C475.324 302.105 475.364 302.006 475.364 301.903C475.364 301.8 475.324 301.701 475.252 301.628L471.251 297.63H475.749C475.853 297.63 475.951 297.589 476.024 297.516C476.097 297.443 476.138 297.344 476.138 297.241C476.132 297.143 476.088 297.05 476.016 296.982C475.944 296.914 475.849 296.876 475.749 296.877Z" fill="#F9A826"/>
<path d="M492.066 296.877H487.568L491.569 292.886C491.64 292.812 491.68 292.714 491.68 292.611C491.68 292.508 491.64 292.409 491.569 292.335C491.533 292.299 491.49 292.27 491.442 292.25C491.395 292.23 491.344 292.22 491.293 292.22C491.242 292.22 491.191 292.23 491.143 292.25C491.096 292.27 491.053 292.299 491.017 292.335L487.016 296.333V291.831C487.016 291.728 486.975 291.629 486.902 291.556C486.829 291.483 486.731 291.442 486.628 291.442C486.525 291.444 486.427 291.486 486.355 291.558C486.283 291.631 486.241 291.728 486.239 291.831V296.333L482.246 292.312C482.21 292.275 482.167 292.247 482.119 292.227C482.072 292.207 482.021 292.197 481.97 292.197C481.919 292.197 481.868 292.207 481.821 292.227C481.773 292.247 481.73 292.275 481.694 292.312C481.623 292.386 481.582 292.485 481.582 292.587C481.582 292.69 481.623 292.789 481.694 292.863L485.695 296.853H481.189C481.087 296.855 480.989 296.897 480.917 296.969C480.844 297.042 480.803 297.139 480.801 297.241C480.801 297.344 480.842 297.443 480.915 297.516C480.987 297.589 481.086 297.63 481.189 297.63H485.695L481.694 301.628C481.623 301.701 481.582 301.8 481.582 301.903C481.582 302.006 481.623 302.105 481.694 302.179C481.769 302.249 481.868 302.287 481.97 302.287C482.072 302.287 482.171 302.249 482.246 302.179L486.239 298.181V302.676C486.239 302.779 486.28 302.877 486.353 302.95C486.426 303.023 486.525 303.064 486.628 303.064C486.731 303.064 486.829 303.023 486.902 302.95C486.975 302.877 487.016 302.779 487.016 302.676V298.181L491.017 302.179C491.092 302.249 491.19 302.287 491.293 302.287C491.395 302.287 491.494 302.249 491.569 302.179C491.64 302.105 491.68 302.006 491.68 301.903C491.68 301.8 491.64 301.701 491.569 301.628L487.568 297.63H492.066C492.169 297.63 492.268 297.589 492.341 297.516C492.413 297.443 492.454 297.344 492.454 297.241C492.448 297.143 492.405 297.05 492.333 296.982C492.26 296.914 492.165 296.876 492.066 296.877Z" fill="#F9A826"/>
<path d="M508.382 296.877H503.884L507.885 292.886C507.957 292.812 507.997 292.714 507.997 292.611C507.997 292.508 507.957 292.409 507.885 292.335C507.849 292.299 507.806 292.27 507.759 292.25C507.711 292.23 507.66 292.22 507.609 292.22C507.558 292.22 507.507 292.23 507.46 292.25C507.413 292.27 507.37 292.299 507.333 292.335L503.332 296.333V291.831C503.332 291.728 503.291 291.629 503.219 291.556C503.146 291.483 503.047 291.442 502.944 291.442C502.842 291.444 502.744 291.486 502.671 291.558C502.599 291.631 502.557 291.728 502.556 291.831V296.333L498.562 292.312C498.526 292.275 498.483 292.247 498.436 292.227C498.388 292.207 498.338 292.197 498.286 292.197C498.235 292.197 498.184 292.207 498.137 292.227C498.09 292.247 498.047 292.275 498.011 292.312C497.939 292.386 497.899 292.485 497.899 292.587C497.899 292.69 497.939 292.789 498.011 292.863L502.012 296.853H497.506C497.403 296.855 497.306 296.897 497.233 296.969C497.161 297.042 497.119 297.139 497.117 297.241C497.117 297.344 497.158 297.443 497.231 297.516C497.304 297.589 497.403 297.63 497.506 297.63H502.012L498.011 301.628C497.939 301.701 497.899 301.8 497.899 301.903C497.899 302.006 497.939 302.105 498.011 302.179C498.085 302.249 498.184 302.287 498.286 302.287C498.389 302.287 498.487 302.249 498.562 302.179L502.556 298.181V302.676C502.556 302.779 502.596 302.877 502.669 302.95C502.742 303.023 502.841 303.064 502.944 303.064C503.047 303.064 503.146 303.023 503.219 302.95C503.291 302.877 503.332 302.779 503.332 302.676V298.181L507.333 302.179C507.408 302.249 507.507 302.287 507.609 302.287C507.712 302.287 507.81 302.249 507.885 302.179C507.957 302.105 507.997 302.006 507.997 301.903C507.997 301.8 507.957 301.701 507.885 301.628L503.884 297.63H508.382C508.485 297.63 508.584 297.589 508.657 297.516C508.73 297.443 508.771 297.344 508.771 297.241C508.765 297.143 508.721 297.05 508.649 296.982C508.577 296.914 508.481 296.876 508.382 296.877Z" fill="#F9A826"/>
<path d="M524.695 296.877H520.196L524.198 292.886C524.269 292.812 524.309 292.714 524.309 292.611C524.309 292.508 524.269 292.409 524.198 292.335C524.161 292.299 524.118 292.27 524.071 292.25C524.024 292.23 523.973 292.22 523.922 292.22C523.87 292.22 523.82 292.23 523.772 292.25C523.725 292.27 523.682 292.299 523.646 292.335L519.645 296.333V291.831C519.645 291.728 519.604 291.629 519.531 291.556C519.458 291.483 519.359 291.442 519.256 291.442C519.154 291.444 519.056 291.486 518.984 291.558C518.912 291.631 518.87 291.728 518.868 291.831V296.333L514.875 292.312C514.839 292.275 514.796 292.247 514.748 292.227C514.701 292.207 514.65 292.197 514.599 292.197C514.548 292.197 514.497 292.207 514.45 292.227C514.402 292.247 514.359 292.275 514.323 292.312C514.251 292.386 514.211 292.485 514.211 292.587C514.211 292.69 514.251 292.789 514.323 292.863L518.324 296.853H513.818C513.716 296.855 513.618 296.897 513.546 296.969C513.473 297.042 513.432 297.139 513.43 297.241C513.43 297.344 513.471 297.443 513.543 297.516C513.616 297.589 513.715 297.63 513.818 297.63H518.324L514.323 301.628C514.251 301.701 514.211 301.8 514.211 301.903C514.211 302.006 514.251 302.105 514.323 302.179C514.398 302.249 514.496 302.287 514.599 302.287C514.701 302.287 514.8 302.249 514.875 302.179L518.868 298.181V302.676C518.868 302.779 518.909 302.877 518.982 302.95C519.055 303.023 519.153 303.064 519.256 303.064C519.359 303.064 519.458 303.023 519.531 302.95C519.604 302.877 519.645 302.779 519.645 302.676V298.181L523.646 302.179C523.721 302.249 523.819 302.287 523.922 302.287C524.024 302.287 524.123 302.249 524.198 302.179C524.269 302.105 524.309 302.006 524.309 301.903C524.309 301.8 524.269 301.701 524.198 301.628L520.196 297.63H524.695C524.798 297.63 524.897 297.589 524.969 297.516C525.042 297.443 525.083 297.344 525.083 297.241C525.077 297.143 525.034 297.05 524.961 296.982C524.889 296.914 524.794 296.876 524.695 296.877Z" fill="#F9A826"/>
<path d="M541.011 296.877H536.513L540.514 292.886C540.586 292.812 540.626 292.714 540.626 292.611C540.626 292.508 540.586 292.409 540.514 292.335C540.478 292.299 540.435 292.27 540.388 292.25C540.34 292.23 540.289 292.22 540.238 292.22C540.187 292.22 540.136 292.23 540.089 292.25C540.041 292.27 539.998 292.299 539.962 292.335L535.961 296.333V291.831C535.961 291.728 535.92 291.629 535.848 291.556C535.775 291.483 535.676 291.442 535.573 291.442C535.47 291.444 535.373 291.486 535.3 291.558C535.228 291.631 535.186 291.728 535.184 291.831V296.333L531.191 292.312C531.155 292.275 531.112 292.247 531.065 292.227C531.017 292.207 530.967 292.197 530.915 292.197C530.864 292.197 530.813 292.207 530.766 292.227C530.719 292.247 530.676 292.275 530.64 292.312C530.568 292.386 530.528 292.485 530.528 292.587C530.528 292.69 530.568 292.789 530.64 292.863L534.641 296.853H530.135C530.032 296.855 529.934 296.897 529.862 296.969C529.79 297.042 529.748 297.139 529.746 297.241C529.746 297.344 529.787 297.443 529.86 297.516C529.933 297.589 530.032 297.63 530.135 297.63H534.641L530.64 301.628C530.568 301.701 530.528 301.8 530.528 301.903C530.528 302.006 530.568 302.105 530.64 302.179C530.714 302.249 530.813 302.287 530.915 302.287C531.018 302.287 531.116 302.249 531.191 302.179L535.184 298.181V302.676C535.184 302.779 535.225 302.877 535.298 302.95C535.371 303.023 535.47 303.064 535.573 303.064C535.676 303.064 535.775 303.023 535.848 302.95C535.92 302.877 535.961 302.779 535.961 302.676V298.181L539.962 302.179C540.037 302.249 540.136 302.287 540.238 302.287C540.341 302.287 540.439 302.249 540.514 302.179C540.586 302.105 540.626 302.006 540.626 301.903C540.626 301.8 540.586 301.701 540.514 301.628L536.513 297.63H541.011C541.114 297.63 541.213 297.589 541.286 297.516C541.359 297.443 541.4 297.344 541.4 297.241C541.394 297.143 541.35 297.05 541.278 296.982C541.206 296.914 541.11 296.876 541.011 296.877Z" fill="#F9A826"/>
<path d="M557.328 296.877H552.829L556.83 292.886C556.902 292.812 556.942 292.714 556.942 292.611C556.942 292.508 556.902 292.409 556.83 292.335C556.794 292.299 556.751 292.27 556.704 292.25C556.657 292.23 556.606 292.22 556.555 292.22C556.503 292.22 556.453 292.23 556.405 292.25C556.358 292.27 556.315 292.299 556.279 292.335L552.278 296.333V291.831C552.278 291.728 552.237 291.629 552.164 291.556C552.091 291.483 551.992 291.442 551.889 291.442C551.787 291.444 551.689 291.486 551.617 291.558C551.544 291.631 551.503 291.728 551.501 291.831V296.333L547.508 292.312C547.471 292.275 547.428 292.247 547.381 292.227C547.334 292.207 547.283 292.197 547.232 292.197C547.18 292.197 547.13 292.207 547.082 292.227C547.035 292.247 546.992 292.275 546.956 292.312C546.884 292.386 546.844 292.485 546.844 292.587C546.844 292.69 546.884 292.789 546.956 292.863L550.957 296.853H546.451C546.349 296.855 546.251 296.897 546.178 296.969C546.106 297.042 546.064 297.139 546.062 297.241C546.062 297.344 546.103 297.443 546.176 297.516C546.249 297.589 546.348 297.63 546.451 297.63H550.957L546.956 301.628C546.884 301.701 546.844 301.8 546.844 301.903C546.844 302.006 546.884 302.105 546.956 302.179C547.031 302.249 547.129 302.287 547.232 302.287C547.334 302.287 547.433 302.249 547.508 302.179L551.501 298.181V302.676C551.501 302.779 551.542 302.877 551.615 302.95C551.687 303.023 551.786 303.064 551.889 303.064C551.992 303.064 552.091 303.023 552.164 302.95C552.237 302.877 552.278 302.779 552.278 302.676V298.181L556.279 302.179C556.354 302.249 556.452 302.287 556.555 302.287C556.657 302.287 556.756 302.249 556.83 302.179C556.902 302.105 556.942 302.006 556.942 301.903C556.942 301.8 556.902 301.701 556.83 301.628L552.829 297.63H557.328C557.431 297.63 557.529 297.589 557.602 297.516C557.675 297.443 557.716 297.344 557.716 297.241C557.71 297.143 557.667 297.05 557.594 296.982C557.522 296.914 557.427 296.876 557.328 296.877Z" fill="#F9A826"/>
<path d="M573.64 296.877H569.142L573.143 292.886C573.214 292.812 573.255 292.714 573.255 292.611C573.255 292.508 573.214 292.409 573.143 292.335C573.107 292.299 573.064 292.27 573.016 292.25C572.969 292.23 572.918 292.22 572.867 292.22C572.816 292.22 572.765 292.23 572.718 292.25C572.67 292.27 572.627 292.299 572.591 292.335L568.59 296.333V291.831C568.59 291.728 568.549 291.629 568.476 291.556C568.404 291.483 568.305 291.442 568.202 291.442C568.099 291.444 568.002 291.486 567.929 291.558C567.857 291.631 567.815 291.728 567.813 291.831V296.333L563.82 292.312C563.784 292.275 563.741 292.247 563.694 292.227C563.646 292.207 563.595 292.197 563.544 292.197C563.493 292.197 563.442 292.207 563.395 292.227C563.347 292.247 563.305 292.275 563.268 292.312C563.197 292.386 563.157 292.485 563.157 292.587C563.157 292.69 563.197 292.789 563.268 292.863L567.269 296.853H562.763C562.661 296.855 562.563 296.897 562.491 296.969C562.419 297.042 562.377 297.139 562.375 297.241C562.375 297.344 562.416 297.443 562.489 297.516C562.562 297.589 562.66 297.63 562.763 297.63H567.269L563.268 301.628C563.197 301.701 563.157 301.8 563.157 301.903C563.157 302.006 563.197 302.105 563.268 302.179C563.343 302.249 563.442 302.287 563.544 302.287C563.647 302.287 563.745 302.249 563.82 302.179L567.813 298.181V302.676C567.813 302.779 567.854 302.877 567.927 302.95C568 303.023 568.099 303.064 568.202 303.064C568.305 303.064 568.404 303.023 568.476 302.95C568.549 302.877 568.59 302.779 568.59 302.676V298.181L572.591 302.179C572.666 302.249 572.765 302.287 572.867 302.287C572.969 302.287 573.068 302.249 573.143 302.179C573.214 302.105 573.255 302.006 573.255 301.903C573.255 301.8 573.214 301.701 573.143 301.628L569.142 297.63H573.64C573.743 297.63 573.842 297.589 573.915 297.516C573.988 297.443 574.029 297.344 574.029 297.241C574.023 297.143 573.979 297.05 573.907 296.982C573.835 296.914 573.739 296.876 573.64 296.877Z" fill="#F9A826"/>
<path d="M589.957 296.877H585.458L589.459 292.886C589.531 292.812 589.571 292.714 589.571 292.611C589.571 292.508 589.531 292.409 589.459 292.335C589.423 292.299 589.38 292.27 589.333 292.25C589.286 292.23 589.235 292.22 589.183 292.22C589.132 292.22 589.081 292.23 589.034 292.25C588.987 292.27 588.944 292.299 588.908 292.335L584.907 296.333V291.831C584.907 291.728 584.866 291.629 584.793 291.556C584.72 291.483 584.621 291.442 584.518 291.442C584.416 291.444 584.318 291.486 584.246 291.558C584.173 291.631 584.132 291.728 584.13 291.831V296.333L580.136 292.312C580.1 292.275 580.057 292.247 580.01 292.227C579.963 292.207 579.912 292.197 579.861 292.197C579.809 292.197 579.759 292.207 579.711 292.227C579.664 292.247 579.621 292.275 579.585 292.312C579.513 292.386 579.473 292.485 579.473 292.587C579.473 292.69 579.513 292.789 579.585 292.863L583.586 296.853H579.08C578.977 296.855 578.88 296.897 578.807 296.969C578.735 297.042 578.693 297.139 578.691 297.241C578.691 297.344 578.732 297.443 578.805 297.516C578.878 297.589 578.977 297.63 579.08 297.63H583.586L579.585 301.628C579.513 301.701 579.473 301.8 579.473 301.903C579.473 302.006 579.513 302.105 579.585 302.179C579.66 302.249 579.758 302.287 579.861 302.287C579.963 302.287 580.062 302.249 580.136 302.179L584.13 298.181V302.676C584.13 302.779 584.171 302.877 584.243 302.95C584.316 303.023 584.415 303.064 584.518 303.064C584.621 303.064 584.72 303.023 584.793 302.95C584.866 302.877 584.907 302.779 584.907 302.676V298.181L588.908 302.179C588.982 302.249 589.081 302.287 589.183 302.287C589.286 302.287 589.384 302.249 589.459 302.179C589.531 302.105 589.571 302.006 589.571 301.903C589.571 301.8 589.531 301.701 589.459 301.628L585.458 297.63H589.957C590.06 297.63 590.158 297.589 590.231 297.516C590.304 297.443 590.345 297.344 590.345 297.241C590.339 297.143 590.295 297.05 590.223 296.982C590.151 296.914 590.056 296.876 589.957 296.877Z" fill="#F9A826"/>
</g>
<defs>
<clipPath id="clip0">
<rect width="906" height="625" fill="white"/>
</clipPath>
</defs>
</svg>
