<svg width="160" height="160" viewBox="0 0 160 160" fill="none" xmlns="http://www.w3.org/2000/svg">
<path d="M80 160C124.183 160 160 124.183 160 80C160 35.8172 124.183 0 80 0C35.8172 0 0 35.8172 0 80C0 124.183 35.8172 160 80 160Z" fill="#F9A826"/>
<path d="M118.731 117.627H40.2692C39.4025 117.627 38.5714 117.289 37.9585 116.689C37.3456 116.089 37.0009 115.275 37 114.426V61.6092C37.0009 60.7606 37.3456 59.9469 37.9585 59.3468C38.5714 58.7466 39.4025 58.4091 40.2692 58.4082H118.731C119.598 58.4091 120.429 58.7466 121.041 59.3467C121.654 59.9469 121.999 60.7606 122 61.6092V114.426C121.999 115.275 121.654 116.089 121.041 116.689C120.429 117.289 119.598 117.627 118.731 117.627ZM40.2692 61.6092V114.426H118.733L118.731 61.6092H40.2692Z" fill="white"/>
<path d="M109.735 59.6096H106.465C106.465 52.6056 103.624 45.8885 98.5658 40.9359C93.5077 35.9834 86.6475 33.201 79.4943 33.201C72.3411 33.201 65.4809 35.9834 60.4228 40.9359C55.3647 45.8885 52.5231 52.6056 52.5231 59.6096H49.2539C49.2539 51.7567 52.4399 44.2253 58.1111 38.6724C63.7823 33.1196 71.474 30 79.4943 30C87.5145 30 95.2063 33.1196 100.877 38.6724C106.549 44.2253 109.735 51.7567 109.735 59.6096Z" fill="white"/>
<path d="M87.6785 81.6184C87.6802 80.2249 87.3101 78.8551 86.605 77.6445C85.8999 76.434 84.8842 75.4248 83.6585 74.7166C82.4327 74.0085 81.0393 73.6261 79.6162 73.6072C78.1931 73.5883 76.7896 73.9336 75.5446 74.6088C74.2997 75.2841 73.2564 76.266 72.518 77.4574C71.7796 78.6487 71.3718 80.0082 71.3348 81.4013C71.2978 82.7943 71.633 84.1727 72.3071 85.4C72.9813 86.6273 73.9711 87.661 75.1785 88.3987V96.9881C75.1785 97.5445 75.2905 98.0954 75.5079 98.6094C75.7254 99.1234 76.0441 99.5905 76.4459 99.9839C76.8476 100.377 77.3246 100.689 77.8496 100.902C78.3746 101.115 78.9373 101.225 79.5055 101.225C80.653 101.225 81.7536 100.778 82.565 99.9839C83.3765 99.1893 83.8324 98.1117 83.8324 96.9881V88.3987C85.0088 87.6813 85.9792 86.6825 86.6521 85.4962C87.325 84.3099 87.6783 82.9754 87.6785 81.6184Z" fill="white"/>
</svg>
